<svg width="512" height="425" xmlns="http://www.w3.org/2000/svg">

 <g>
  <title>background</title>
  <rect fill="none" id="canvas_background" height="427" width="514" y="-1" x="-1"/>
 </g>
 <g>
  <title>Layer 1</title>
  <path id="svg_1" fill="#8F664D" d="m44.138,1.17c-26.483,0 -44.138,17.655 -44.138,44.138c0,44.138 61.793,167.724 105.931,167.724c30.345,0 39.172,0 39.172,0l110.897,-8.827c0,0 -131.925,-203.035 -211.862,-203.035z"/>
  <path id="svg_2" fill="#7C5546" d="m132.84,213.031c-32.847,-87.064 -43.073,-174.948 -45.193,-196.706c-15.376,-9.416 -30.173,-15.155 -43.509,-15.155c-26.483,0 -44.138,17.655 -44.138,44.138c0,44.138 61.793,167.724 105.931,167.724c12.177,-0.001 20.842,-0.001 26.909,-0.001z"/>
  <path id="svg_3" fill="#6F463C" d="m19.31,67.377c0,-24.828 13.337,-39.724 38.03,-39.724c42.121,0 108.872,64.476 158.976,120.563c-45.296,-60.1 -119.865,-147.046 -172.178,-147.046c-26.483,0 -44.138,17.655 -44.138,44.138c0,33.342 35.262,111.988 71.538,148.482c-28.196,-37.921 -52.228,-98.937 -52.228,-126.413z"/>
  <path id="svg_4" fill="#7C5546" d="m52.966,310.135c-8.342,16.245 -7.724,33.471 3.678,47.448c21.916,26.865 12.505,33.839 22.805,49.655c11.678,17.932 52.168,24.341 97.103,8.828c46.345,-16 79.448,-176.552 79.448,-176.552l0,-44.138c-141.241,-17.654 -196.046,101.15 -203.034,114.759z"/>
  <path id="svg_5" fill="#507387" d="m247.172,221.859c-38.506,-11.001 -76.999,8.844 -100.552,25.367c18.574,40.714 42.759,79.333 74.401,108.35c21.617,-51.349 34.979,-116.061 34.979,-116.061l0,-13.781c-2.711,-1.599 -5.609,-2.955 -8.828,-3.875z"/>
  <path id="svg_6" fill="#A07855" d="m219.742,358.61c22.367,-51.8 36.258,-119.095 36.258,-119.095l0,-35.31c0,0 -60.098,43.021 -36.258,154.405z"/>
  <path id="svg_7" fill="#32465F" d="m176.552,416.066c16.917,-5.839 32.055,-30.962 44.478,-60.482c-39.002,-35.761 -66.827,-86.055 -86.559,-136.963c-53.176,31.583 -77.056,82.85 -81.505,91.514c-8.342,16.245 -7.724,33.471 3.678,47.448c21.916,26.865 12.505,33.839 22.805,49.655c11.677,17.933 52.167,24.342 97.103,8.828z"/>
  <g id="svg_8">
   <circle id="svg_9" fill="#507387" r="8.828" cy="294.413" cx="108.966"/>
   <circle id="svg_10" fill="#507387" r="8.828" cy="372.482" cx="161.103"/>
   <circle id="svg_11" fill="#507387" r="8.828" cy="332.206" cx="133.241"/>
   <circle id="svg_12" fill="#507387" r="6.805" cy="250.727" cx="129.291"/>
   <circle id="svg_13" fill="#507387" r="6.805" cy="306.451" cx="159.36"/>
   <circle id="svg_14" fill="#507387" r="6.805" cy="355.831" cx="197.517"/>
   <circle id="svg_15" fill="#507387" r="6.805" cy="332.57" cx="177.567"/>
   <circle id="svg_16" fill="#507387" r="6.805" cy="281.072" cx="142.709"/>
   <circle id="svg_17" fill="#507387" r="8.828" cy="398.964" cx="121.655"/>
   <circle id="svg_18" fill="#507387" r="8.828" cy="328.068" cx="78.069"/>
   <circle id="svg_19" fill="#507387" r="8.828" cy="360.344" cx="107.31"/>
  </g>
  <path id="svg_20" fill="#8F664D" d="m467.862,1.17c26.483,0 44.138,17.655 44.138,44.138c0,44.138 -61.793,167.724 -105.931,167.724c-30.345,0 -39.172,0 -39.172,0l-110.897,-8.827c0,0 131.925,-203.035 211.862,-203.035z"/>
  <path id="svg_21" fill="#7C5546" d="m379.16,213.031c32.847,-87.064 43.073,-174.948 45.193,-196.706c15.377,-9.417 30.173,-15.156 43.509,-15.156c26.483,0 44.138,17.655 44.138,44.138c0,44.138 -61.793,167.724 -105.931,167.724c-12.177,0 -20.842,0 -26.909,0z"/>
  <path id="svg_22" fill="#6F463C" d="m492.69,67.377c0,-24.828 -13.336,-39.724 -38.03,-39.724c-42.121,0 -108.872,64.476 -158.976,120.563c45.296,-60.1 119.865,-147.046 172.178,-147.046c26.483,0 44.138,17.655 44.138,44.138c0,33.342 -35.262,111.988 -71.538,148.482c28.196,-37.921 52.228,-98.937 52.228,-126.413z"/>
  <path id="svg_23" fill="#7C5546" d="m459.034,310.135c8.342,16.245 7.724,33.471 -3.678,47.448c-21.916,26.865 -12.505,33.839 -22.805,49.655c-11.678,17.932 -52.168,24.341 -97.103,8.828c-46.345,-16 -79.448,-176.552 -79.448,-176.552l0,-44.138c141.241,-17.654 196.045,101.15 203.034,114.759z"/>
  <path id="svg_24" fill="#507387" d="m264.828,221.859c38.505,-11.001 76.999,8.844 100.552,25.367c-18.574,40.714 -42.759,79.333 -74.401,108.35c-21.617,-51.349 -34.979,-116.061 -34.979,-116.061l0,-13.781c2.711,-1.599 5.608,-2.955 8.828,-3.875z"/>
  <path id="svg_25" fill="#A07855" d="m292.258,358.61c-22.367,-51.8 -36.258,-119.095 -36.258,-119.095l0,-35.31c0,0 60.098,43.021 36.258,154.405z"/>
  <path id="svg_26" fill="#32465F" d="m335.448,416.066c-16.917,-5.839 -32.055,-30.962 -44.478,-60.482c39.003,-35.761 66.827,-86.055 86.559,-136.963c53.176,31.582 77.056,82.85 81.505,91.514c8.342,16.245 7.724,33.471 -3.678,47.448c-21.916,26.865 -12.505,33.839 -22.805,49.655c-11.677,17.933 -52.167,24.342 -97.103,8.828z"/>
  <g id="svg_27">
   <circle id="svg_28" fill="#507387" r="8.828" cy="294.413" cx="403.034"/>
   <circle id="svg_29" fill="#507387" r="8.828" cy="372.482" cx="350.897"/>
   <circle id="svg_30" fill="#507387" r="8.828" cy="332.206" cx="378.759"/>
   <circle id="svg_31" fill="#507387" r="6.805" cy="250.727" cx="382.709"/>
   <circle id="svg_32" fill="#507387" r="6.805" cy="306.451" cx="352.64"/>
   <circle id="svg_33" fill="#507387" r="6.805" cy="355.831" cx="314.483"/>
   <circle id="svg_34" fill="#507387" r="6.805" cy="332.57" cx="334.433"/>
   <circle id="svg_35" fill="#507387" r="6.805" cy="281.072" cx="369.291"/>
   <circle id="svg_36" fill="#507387" r="8.828" cy="398.964" cx="390.345"/>
   <circle id="svg_37" fill="#507387" r="8.828" cy="328.068" cx="433.931"/>
   <circle id="svg_38" fill="#507387" r="8.828" cy="360.344" cx="404.69"/>
  </g>
  <path id="svg_39" fill="#908490" d="m256,164.481c-2.13,0 -3.957,-1.526 -4.345,-3.62c-8.491,-46.332 -42.759,-85.763 -43.104,-86.155c-1.612,-1.832 -1.431,-4.617 0.396,-6.229c1.827,-1.608 4.621,-1.436 6.225,0.401c1.293,1.47 28.207,32.388 40.828,72.914c12.62,-40.526 39.534,-71.444 40.828,-72.914c1.612,-1.836 4.396,-2.008 6.225,-0.401c1.827,1.612 2.008,4.396 0.396,6.229c-0.345,0.392 -34.612,39.823 -43.103,86.155c-0.389,2.093 -2.216,3.62 -4.346,3.62z"/>
  <path id="svg_40" fill="#463246" d="m256,301.307c-4.879,0 -8.828,-3.948 -8.828,-8.828l0,-132.413c0,-4.879 3.948,-8.828 8.828,-8.828c4.879,0 8.828,3.948 8.828,8.828l0,132.414c0,4.879 -3.949,8.827 -8.828,8.827z"/>
  <path id="svg_41" fill="#5A464B" d="m256,230.686l0,0c-9.751,0 -17.655,-7.904 -17.655,-17.655l0,-26.483c0,-9.751 7.904,-17.655 17.655,-17.655l0,0c9.751,0 17.655,7.904 17.655,17.655l0,26.483c0,9.751 -7.904,17.655 -17.655,17.655z"/>
  <g id="svg_42"/>
  <g id="svg_43"/>
  <g id="svg_44"/>
  <g id="svg_45"/>
  <g id="svg_46"/>
  <g id="svg_47"/>
  <g id="svg_48"/>
  <g id="svg_49"/>
  <g id="svg_50"/>
  <g id="svg_51"/>
  <g id="svg_52"/>
  <g id="svg_53"/>
  <g id="svg_54"/>
  <g id="svg_55"/>
  <g id="svg_56"/>
 </g>
</svg>