<svg width="512" height="340" xmlns="http://www.w3.org/2000/svg">

 <g>
  <title>background</title>
  <rect fill="none" id="canvas_background" height="342" width="514" y="-1" x="-1"/>
 </g>
 <g>
  <title>Layer 1</title>
  <path id="svg_1" fill="#A5907D" d="m247.172,178.828l-120.569,0c-16.621,0 -32.362,-4.957 -45.526,-14.336c-30.284,-21.565 -81.077,-66.734 -81.077,-126.906c0,-20.789 14.517,-35.31 35.31,-35.31c109.25,0 214.638,147.526 219.078,153.806c1.052,1.487 1.612,3.267 1.612,5.09l0,8.828c0,4.875 -3.948,8.828 -8.828,8.828z"/>
  <path id="svg_2" fill="#E6DCD2" d="m249.547,170c-44,-58.927 -132.352,-150.069 -212.646,-150.069c-12.051,0 -19.246,7.425 -19.246,19.862c0,58.799 50.312,104.551 80.301,126.589c11.075,8.143 24.374,12.446 38.465,12.446l5.044,0c-28.396,15.201 -82.165,47.773 -88.5,79.448c-8.828,44.138 26.483,79.448 61.793,79.448s97.104,-44.138 141.242,-150.069l0,-17.655l-6.453,0z"/>
  <path id="svg_3" fill="#A5907D" d="m57.089,247.099c-1.939,3.719 -3.379,7.453 -4.124,11.177c-8.828,44.138 26.483,79.448 61.793,79.448c14.473,0 33.419,-7.563 53.75,-23.609c-12.673,4.156 -28.046,6.359 -47.865,6.689c-34.747,0.579 -70.881,-30.546 -63.554,-73.705z"/>
  <path id="svg_4" fill="#FF6E64" d="m70.712,318.178c11.915,12.159 27.956,19.546 44.046,19.546c15.16,0 35.213,-8.204 56.643,-25.874l-5.057,-18.54l-66.759,-6.069l-28.873,30.937z"/>
  <g id="svg_5">
   <path id="svg_6" fill="#594759" d="m161.138,277.939c-2.655,-1.302 -5.793,-1.185 -8.362,0.306l-10.231,5.997c-1.75,-3.092 -3.064,-4.786 -3.268,-5.041c-2.983,-3.677 -8.353,-4.358 -12.156,-1.504c-3.827,2.87 -7.138,6.033 -10.191,9.315l-3.102,-6.204c-1.965,-3.932 -6.517,-5.811 -10.69,-4.427c-1.035,0.346 -21.88,7.633 -39.826,32.91c3.494,5.055 7.666,9.521 12.267,13.383c9.333,-14.347 19.713,-22.291 26.344,-26.198l3.266,6.536c-5.8,10.345 -9.173,21.144 -11.119,30.684c5.609,2.171 11.45,3.452 17.343,3.82c2.489,-12.332 7.686,-27.103 18.571,-38.755c2.884,6.968 6.074,18.42 6.386,34.442c5.508,-2.105 11.305,-4.96 17.318,-8.621c-0.747,-9.469 -2.38,-17.431 -4.312,-23.878l7.299,-4.28c3.058,2.909 7.546,8.503 11.134,18.239c4.642,-3.624 9.335,-7.559 14.092,-12.098c-8.244,-17.918 -19.196,-23.855 -20.763,-24.626z"/>
   <circle id="svg_7" fill="#594759" r="9.012" cy="268.571" cx="70.808"/>
  </g>
  <path id="svg_8" fill="#CFC1B4" d="m111.401,196.483l140.692,0c1.301,-2.951 2.635,-5.774 3.907,-8.828l0,-8.828l-114.535,0c-8.42,4.508 -19.08,10.571 -30.064,17.656z"/>
  <path id="svg_9" fill="#A5907D" d="m256,170l0,-8.828c0,-1.823 0.561,-3.604 1.612,-5.09c4.439,-6.281 109.827,-153.806 219.078,-153.806c20.793,0 35.31,14.521 35.31,35.31c0,60.172 -50.793,105.341 -81.078,126.905c-13.164,9.379 -28.905,14.336 -45.526,14.336l-120.568,0c-4.88,0.001 -8.828,-3.952 -8.828,-8.827z"/>
  <path id="svg_10" fill="#E6DCD2" d="m262.453,170c44,-58.927 132.352,-150.069 212.646,-150.069c12.051,0 19.246,7.425 19.246,19.862c0,58.799 -50.312,104.551 -80.301,126.589c-11.075,8.143 -24.374,12.446 -38.465,12.446l-5.044,0c28.396,15.201 82.165,47.773 88.5,79.448c8.828,44.138 -26.483,79.448 -61.793,79.448s-97.104,-44.138 -141.242,-150.069l0,-17.655l6.453,0z"/>
  <path id="svg_11" fill="#A5907D" d="m454.911,247.099c1.938,3.719 3.379,7.454 4.124,11.177c8.828,44.138 -26.483,79.448 -61.793,79.448c-14.473,0 -33.419,-7.563 -53.75,-23.609c12.673,4.156 28.046,6.359 47.865,6.689c34.747,0.579 70.881,-30.546 63.554,-73.705z"/>
  <path id="svg_12" fill="#FF6E64" d="m441.287,318.178c-11.914,12.159 -27.955,19.546 -44.045,19.546c-15.16,0 -35.213,-8.204 -56.642,-25.874l5.057,-18.54l66.759,-6.069l28.871,30.937z"/>
  <g id="svg_13">
   <path id="svg_14" fill="#594759" d="m350.862,277.939c2.655,-1.302 5.793,-1.185 8.362,0.306l10.231,5.997c1.75,-3.092 3.064,-4.786 3.268,-5.041c2.983,-3.677 8.353,-4.358 12.156,-1.504c3.827,2.87 7.138,6.033 10.191,9.315l3.102,-6.204c1.965,-3.932 6.517,-5.811 10.69,-4.427c1.035,0.346 21.88,7.633 39.826,32.91c-3.493,5.055 -7.666,9.521 -12.267,13.383c-9.333,-14.347 -19.713,-22.291 -26.344,-26.198l-3.266,6.536c5.8,10.345 9.173,21.144 11.119,30.684c-5.609,2.171 -11.451,3.452 -17.343,3.82c-2.489,-12.332 -7.686,-27.103 -18.571,-38.755c-2.884,6.968 -6.074,18.42 -6.386,34.442c-5.508,-2.105 -11.305,-4.96 -17.318,-8.621c0.747,-9.469 2.38,-17.431 4.312,-23.878l-7.299,-4.28c-3.058,2.909 -7.546,8.503 -11.134,18.239c-4.642,-3.624 -9.335,-7.559 -14.092,-12.098c8.244,-17.918 19.196,-23.855 20.763,-24.626z"/>
   <circle id="svg_15" fill="#594759" r="9.012" cy="268.571" cx="441.192"/>
  </g>
  <path id="svg_16" fill="#CFC1B4" d="m400.599,196.483l-140.693,0c-1.301,-2.951 -2.635,-5.774 -3.907,-8.828l0,-8.828l114.535,0c8.421,4.508 19.081,10.571 30.065,17.656z"/>
  <path id="svg_17" fill="#908490" d="m256,147.931c-1.241,0 -2.431,-0.526 -3.267,-1.444c-35.569,-39.129 -53.19,-96.375 -53.922,-98.793c-0.707,-2.332 0.612,-4.798 2.94,-5.504c2.354,-0.707 4.802,0.617 5.508,2.944c0.172,0.556 16.681,54.146 48.742,91.706c32.061,-37.56 48.569,-91.15 48.742,-91.706c0.707,-2.327 3.155,-3.647 5.508,-2.944c2.327,0.707 3.647,3.172 2.94,5.504c-0.733,2.418 -18.354,59.663 -53.922,98.793c-0.838,0.918 -2.028,1.444 -3.269,1.444z"/>
  <path id="svg_18" fill="#5A464B" d="m256,275.931c-4.879,0 -8.828,-3.953 -8.828,-8.828l0,-123.586c0,-4.875 3.948,-8.828 8.828,-8.828c4.879,0 8.828,3.953 8.828,8.828l0,123.586c0,4.875 -3.949,8.828 -8.828,8.828z"/>
  <path id="svg_19" fill="#463246" d="m256,196.483l0,0c-9.751,0 -17.655,-7.904 -17.655,-17.655l0,-17.655c0,-9.751 7.904,-17.655 17.655,-17.655l0,0c9.751,0 17.655,7.904 17.655,17.655l0,17.655c0,9.751 -7.905,17.655 -17.655,17.655z"/>
  <g id="svg_20"/>
  <g id="svg_21"/>
  <g id="svg_22"/>
  <g id="svg_23"/>
  <g id="svg_24"/>
  <g id="svg_25"/>
  <g id="svg_26"/>
  <g id="svg_27"/>
  <g id="svg_28"/>
  <g id="svg_29"/>
  <g id="svg_30"/>
  <g id="svg_31"/>
  <g id="svg_32"/>
  <g id="svg_33"/>
  <g id="svg_34"/>
 </g>
</svg>