<svg width="512.001" height="425" xmlns="http://www.w3.org/2000/svg">

 <g>
  <title>background</title>
  <rect fill="none" id="canvas_background" height="427" width="514.001" y="-1" x="-1"/>
 </g>
 <g>
  <title>Layer 1</title>
  <path id="svg_1" fill="#FF9B46" d="m394.023,181.849c0.353,0.043 0.715,0.113 1.06,0.207c51.215,13.224 59.853,60.439 57.275,83.551c-0.396,3.5 -2.828,6.431 -6.189,7.457c-9.189,2.81 -4.086,22.405 -4.034,22.577c0.672,2.327 0.362,4.828 -0.871,6.922c-1.224,2.087 -3.25,3.586 -5.612,4.129c-1.034,0.242 -2.146,0.707 -3.224,2.465c-4.233,6.922 -2.629,24.198 -0.138,34.258c0.871,3.509 -0.491,7.198 -3.431,9.302c-2.94,2.112 -6.871,2.216 -9.913,0.25c-10.879,-6.991 -24,-5.827 -30.508,2.716c-9.06,11.88 12.319,41.818 24.086,54.465c3.319,3.561 3.129,9.146 -0.439,12.474c-1.698,1.587 -3.862,2.37 -6.017,2.37c-2.362,0 -4.715,-0.94 -6.457,-2.802c-2.91,-3.122 -19.473,-21.448 -27.073,-41.336l-18.815,0c-5.903,0 -11.415,-2.951 -14.69,-7.862l-83.033,-124.548l0,-84.797c0.324,0.109 0.664,0.214 1.146,0.28l136.877,17.922z"/>
  <path id="svg_2" fill="#FFDE9B" d="m256,210.971c8.859,4.694 16,9.886 16,9.886s58.874,95.448 32.439,100.244l-48.439,-72.658l0,-37.472z"/>
  <path id="svg_3" fill="#E17837" d="m399.61,422.191c-2.91,-3.122 -19.473,-21.448 -27.073,-41.336l-18.815,0c-5.903,0 -11.415,-2.951 -14.69,-7.862l-5.355,-8.032c15.595,-20.153 25.586,-44.646 19.424,-72.381c-15.97,-71.862 -9.122,-104.292 15.838,-114.016l25.084,3.285c0.353,0.043 0.715,0.113 1.06,0.207c51.215,13.224 59.853,60.439 57.275,83.551c-0.396,3.5 -2.828,6.431 -6.189,7.457c-9.189,2.81 -4.086,22.405 -4.034,22.577c0.672,2.327 0.362,4.828 -0.871,6.922c-1.224,2.087 -3.25,3.586 -5.612,4.129c-1.034,0.242 -2.146,0.707 -3.224,2.465c-4.233,6.922 -2.629,24.198 -0.138,34.258c0.871,3.509 -0.491,7.198 -3.431,9.302c-2.94,2.112 -6.871,2.216 -9.913,0.25c-10.879,-6.991 -24,-5.827 -30.508,2.716c-9.06,11.88 12.319,41.818 24.086,54.465c3.319,3.561 3.129,9.146 -0.439,12.474c-1.698,1.587 -3.862,2.37 -6.017,2.37c-2.363,0.001 -4.717,-0.938 -6.458,-2.801z"/>
  <path id="svg_4" fill="#FFDE9B" d="m353.347,176.523c-27.103,4.097 -38.188,35.027 -97.347,22.094l0,-34.971c0.324,0.109 0.664,0.214 1.146,0.28l96.201,12.597z"/>
  <path id="svg_5" fill="#FFC864" d="m495.012,1.019c9.978,-0.338 18.081,8.094 16.867,17.652c-1.513,11.903 -6.036,29.782 -18.191,53.223c-18.308,35.31 -18.308,61.792 -18.308,97.102c0,17.655 -9.154,26.482 -27.463,26.482c-27.463,0 -183.089,-17.655 -183.089,-17.655l0,-26.482c0,-0.001 100.904,-145.953 230.184,-150.322z"/>
  <path id="svg_6" fill="#FF9B46" d="m356.288,57.226c38.304,-29.255 86.168,-54.431 138.724,-56.207c9.978,-0.338 18.081,8.094 16.867,17.652c-1.513,11.903 -6.036,29.782 -18.191,53.223c-18.308,35.31 -18.308,61.792 -18.308,97.102c0,17.655 -9.154,26.482 -27.463,26.482c-10.209,0 -38.137,-2.441 -69.191,-5.507c-8.52,-81.665 -67.554,-73.389 -22.438,-132.745z"/>
  <path id="svg_7" fill="#E17837" d="m428.861,15.387l0.012,-0.111c1.404,-0.551 2.861,-0.974 4.277,-1.498c2.6,-0.96 5.212,-1.885 7.85,-2.751c2.275,-0.748 4.556,-1.465 6.859,-2.14c2.66,-0.777 5.349,-1.461 8.046,-2.134c2.196,-0.548 4.372,-1.149 6.591,-1.624c0.06,-0.013 0.117,-0.031 0.178,-0.044l-0.004,0.015c10.551,-2.249 21.334,-3.709 32.342,-4.081c9.978,-0.338 18.081,8.094 16.867,17.652c-1.513,11.903 -6.036,29.782 -18.191,53.223c-18.308,35.31 -18.308,61.792 -18.308,97.102c0,17.655 -9.154,26.482 -27.463,26.482c-6.671,0 -20.973,-1.053 -38.704,-2.631l10.017,-90.465l-24.196,11.442c3.31,-35.31 -24.827,-35.31 -24.282,-67.099c17.772,-12.255 37.298,-23.196 58.109,-31.338z"/>
  <g id="svg_8">
   <path id="svg_9" fill="#695046" d="m411.952,63.065c10.093,-15.726 9.931,-34.574 4.74,-42.599c7.528,-3.424 15.252,-6.472 23.142,-9.111c13.129,9.781 16.181,28.396 1.941,54.38c-38.65,70.526 3.648,91.859 -12.879,128.745c-7.981,-0.594 -17.535,-1.414 -28.05,-2.387c19.198,-28.982 -36.342,-55.097 11.106,-129.028z"/>
   <path id="svg_10" fill="#695046" d="m447.722,150.789c-8.827,-26.482 4.552,-59.973 20.138,-87.723c15.081,-26.85 9.931,-48.919 2.997,-59.586c7.927,-1.335 15.983,-2.185 24.156,-2.461c9.978,-0.338 18.081,8.094 16.867,17.652c-1.513,11.903 -6.036,29.782 -18.191,53.223c-18.308,35.31 -18.308,61.792 -18.308,97.102c0,17.149 -8.713,25.895 -25.987,26.388c3.018,-8.734 4.255,-26.816 -1.672,-44.595z"/>
   <path id="svg_11" fill="#695046" d="m434.989,258.9c-10.817,6.773 -13.609,20.853 -11.478,34.307c-2.852,2.087 -4.822,4.584 -6.135,6.728c-5.384,8.805 -5.726,21.527 -4.826,31.664c-2.787,-0.559 -5.61,-0.843 -8.436,-0.843c-5.157,0 -10.014,1.134 -14.52,2.946c6.405,-16.852 12.215,-44.871 -1.181,-76.431c-12.697,-29.915 -5.432,-50.945 -1.749,-58.58l4.505,0.59c39.886,10.742 43.763,46.619 43.82,59.619z"/>
   <circle id="svg_12" fill="#695046" r="9.931" cy="357.681" cx="360.823"/>
  </g>
  <g id="svg_13">
   <circle id="svg_14" fill="#E17837" r="7.448" cy="263.061" cx="409.65"/>
   <circle id="svg_15" fill="#E17837" r="9.195" cy="229.042" cx="402.754"/>
  </g>
  <path id="svg_16" fill="#FF9B46" d="m117.976,181.849c-0.353,0.043 -0.715,0.113 -1.06,0.207c-51.216,13.224 -59.853,60.439 -57.276,83.552c0.396,3.5 2.828,6.431 6.189,7.457c9.189,2.81 4.086,22.405 4.034,22.577c-0.672,2.327 -0.362,4.828 0.871,6.922c1.224,2.087 3.25,3.586 5.612,4.129c1.035,0.242 2.146,0.707 3.224,2.465c4.233,6.922 2.629,24.198 0.138,34.258c-0.871,3.509 0.491,7.198 3.431,9.302c2.94,2.112 6.871,2.216 9.913,0.25c10.879,-6.991 24,-5.827 30.508,2.716c9.06,11.88 -12.319,41.818 -24.086,54.465c-3.319,3.561 -3.129,9.146 0.439,12.474c1.698,1.587 3.862,2.37 6.017,2.37c2.362,0 4.715,-0.94 6.457,-2.802c2.91,-3.122 19.473,-21.448 27.073,-41.336l18.815,0c5.903,0 11.415,-2.951 14.69,-7.862l83.034,-124.55l0,-84.797c-0.324,0.109 -0.664,0.214 -1.146,0.28l-136.877,17.923z"/>
  <path id="svg_17" fill="#FFDE9B" d="m256,210.971c-8.859,4.694 -16,9.886 -16,9.886s-58.874,95.448 -32.439,100.244l48.439,-72.658l0,-37.472z"/>
  <path id="svg_18" fill="#E17837" d="m112.389,422.191c2.91,-3.122 19.473,-21.448 27.073,-41.336l18.815,0c5.903,0 11.415,-2.951 14.69,-7.862l5.355,-8.032c-15.595,-20.153 -25.586,-44.646 -19.424,-72.381c15.97,-71.862 9.122,-104.292 -15.838,-114.016l-25.084,3.285c-0.353,0.043 -0.715,0.113 -1.06,0.207c-51.216,13.224 -59.853,60.439 -57.276,83.552c0.396,3.5 2.828,6.431 6.189,7.457c9.189,2.81 4.086,22.405 4.034,22.577c-0.672,2.327 -0.362,4.828 0.871,6.922c1.224,2.087 3.25,3.586 5.612,4.129c1.035,0.242 2.146,0.707 3.224,2.465c4.233,6.922 2.629,24.198 0.138,34.258c-0.871,3.509 0.491,7.198 3.431,9.302c2.94,2.112 6.871,2.216 9.913,0.25c10.879,-6.991 24,-5.827 30.508,2.716c9.06,11.88 -12.319,41.818 -24.086,54.465c-3.319,3.561 -3.129,9.146 0.439,12.474c1.698,1.587 3.862,2.37 6.017,2.37c2.364,0 4.718,-0.939 6.459,-2.802z"/>
  <path id="svg_19" fill="#FFDE9B" d="m158.652,176.523c27.103,4.097 38.188,35.027 97.347,22.094l0,-34.971c-0.324,0.109 -0.664,0.214 -1.146,0.28l-96.201,12.597z"/>
  <path id="svg_20" fill="#FFC864" d="m16.987,1.019c-9.978,-0.337 -18.081,8.094 -16.866,17.651c1.513,11.903 6.036,29.782 18.191,53.223c18.308,35.31 18.308,61.792 18.308,97.102c0,17.655 9.154,26.482 27.463,26.482c27.463,0 183.089,-17.655 183.089,-17.655l0,-26.482c0.001,0 -100.905,-145.952 -230.185,-150.321z"/>
  <path id="svg_21" fill="#FF9B46" d="m155.711,57.226c-38.304,-29.255 -86.168,-54.431 -138.724,-56.207c-9.978,-0.337 -18.081,8.094 -16.866,17.651c1.513,11.903 6.036,29.782 18.191,53.223c18.308,35.31 18.308,61.792 18.308,97.102c0,17.655 9.154,26.482 27.463,26.482c10.209,0 38.137,-2.441 69.191,-5.507c8.519,-81.664 67.554,-73.388 22.437,-132.744z"/>
  <path id="svg_22" fill="#E17837" d="m83.138,15.387l-0.012,-0.111c-1.404,-0.551 -2.861,-0.974 -4.277,-1.498c-2.6,-0.96 -5.212,-1.885 -7.85,-2.751c-2.275,-0.748 -4.556,-1.465 -6.859,-2.14c-2.66,-0.777 -5.349,-1.461 -8.046,-2.134c-2.196,-0.548 -4.372,-1.149 -6.591,-1.624c-0.06,-0.013 -0.117,-0.031 -0.178,-0.044l0.002,0.013c-10.551,-2.249 -21.334,-3.709 -32.342,-4.081c-9.976,-0.335 -18.079,8.096 -16.864,17.653c1.513,11.903 6.036,29.782 18.191,53.223c18.308,35.31 18.308,61.792 18.308,97.102c0,17.655 9.154,26.482 27.463,26.482c6.671,0 20.973,-1.053 38.704,-2.631l-10.017,-90.465l24.196,11.442c-3.31,-35.31 24.827,-35.31 24.282,-67.099c-17.773,-12.254 -37.299,-23.195 -58.11,-31.337z"/>
  <g id="svg_23">
   <path id="svg_24" fill="#7C5546" d="m247.173,138.099c-1.689,0 -3.301,-0.974 -4.034,-2.621l-35.31,-79.447c-0.991,-2.229 0.018,-4.836 2.241,-5.827c2.225,-0.983 4.836,0.004 5.827,2.241l35.31,79.447c0.991,2.225 -0.018,4.836 -2.241,5.827c-0.587,0.26 -1.191,0.38 -1.793,0.38z"/>
   <path id="svg_25" fill="#7C5546" d="m264.828,138.099c-0.604,0 -1.207,-0.12 -1.793,-0.38c-2.225,-0.991 -3.233,-3.604 -2.241,-5.827l35.31,-79.447c0.991,-2.237 3.595,-3.224 5.827,-2.241c2.225,0.991 3.233,3.599 2.241,5.827l-35.31,79.447c-0.733,1.648 -2.345,2.621 -4.034,2.621z"/>
  </g>
  <circle id="svg_26" fill="#6F463C" r="17.655" cy="142.511" cx="255.997"/>
  <path id="svg_27" fill="#7C5546" d="m256,292.58c-4.879,0 -8.827,-3.948 -8.827,-8.827l0,-52.965c0,-4.879 3.948,-8.827 8.827,-8.827s8.827,3.948 8.827,8.827l0,52.965c0.001,4.879 -3.949,8.827 -8.827,8.827z"/>
  <path id="svg_28" fill="#9B6450" d="m256,248.443l0,0c-14.626,0 -26.482,-11.856 -26.482,-26.482l0,-44.137c0,-14.626 11.856,-26.482 26.482,-26.482l0,0c14.626,0 26.482,11.856 26.482,26.482l0,44.137c0.001,14.625 -11.857,26.482 -26.482,26.482z"/>
  <g id="svg_29">
   <path id="svg_30" fill="#695046" d="m100.047,63.065c-10.093,-15.726 -9.931,-34.574 -4.74,-42.599c-7.528,-3.424 -15.252,-6.472 -23.142,-9.111c-13.129,9.781 -16.181,28.396 -1.941,54.38c38.651,70.526 -3.648,91.859 12.879,128.745c7.981,-0.594 17.535,-1.414 28.05,-2.387c-19.197,-28.982 36.342,-55.097 -11.106,-129.028z"/>
   <path id="svg_31" fill="#695046" d="m64.278,150.789c8.827,-26.482 -4.552,-59.973 -20.138,-87.723c-15.081,-26.85 -9.931,-48.919 -2.997,-59.586c-7.927,-1.335 -15.983,-2.185 -24.156,-2.461c-9.978,-0.337 -18.081,8.094 -16.866,17.651c1.513,11.903 6.036,29.782 18.191,53.223c18.308,35.31 18.308,61.792 18.308,97.102c0,17.148 8.713,25.895 25.987,26.388c-3.019,-8.733 -4.256,-26.815 1.671,-44.594z"/>
   <path id="svg_32" fill="#695046" d="m77.011,258.9c10.817,6.773 13.609,20.853 11.478,34.307c2.852,2.087 4.822,4.584 6.135,6.728c5.384,8.805 5.726,21.527 4.826,31.664c2.787,-0.559 5.61,-0.843 8.436,-0.843c5.157,0 10.014,1.134 14.52,2.946c-6.405,-16.852 -12.215,-44.871 1.181,-76.431c12.697,-29.915 5.432,-50.945 1.749,-58.58l-4.505,0.59c-39.887,10.742 -43.764,46.619 -43.82,59.619z"/>
   <circle id="svg_33" fill="#695046" r="9.931" cy="357.681" cx="151.17"/>
  </g>
  <g id="svg_34">
   <circle id="svg_35" fill="#E17837" r="7.448" cy="263.061" cx="102.343"/>
   <circle id="svg_36" fill="#E17837" r="9.195" cy="229.042" cx="109.24"/>
  </g>
  <g id="svg_37"/>
  <g id="svg_38"/>
  <g id="svg_39"/>
  <g id="svg_40"/>
  <g id="svg_41"/>
  <g id="svg_42"/>
  <g id="svg_43"/>
  <g id="svg_44"/>
  <g id="svg_45"/>
  <g id="svg_46"/>
  <g id="svg_47"/>
  <g id="svg_48"/>
  <g id="svg_49"/>
  <g id="svg_50"/>
  <g id="svg_51"/>
 </g>
</svg>