<svg width="512" height="383" xmlns="http://www.w3.org/2000/svg">

 <g>
  <title>background</title>
  <rect fill="none" id="canvas_background" height="385" width="514" y="-1" x="-1"/>
 </g>
 <g>
  <title>Layer 1</title>
  <path id="svg_1" fill="#E6DCD2" d="m396.138,169.197c0,0 62.897,54.069 62.897,98.207s-79.448,123.586 -132.414,114.759c-43.538,-7.256 -70.621,-132.414 -70.621,-132.414l0,-79.448l140.138,-1.104z"/>
  <path id="svg_2" fill="#CFC1B4" d="m256,209.147l0,-38.845l140.138,-1.103c0,0 9.005,7.752 20.194,19.758c-50.539,-3.208 -120.608,2.861 -160.332,20.19z"/>
  <path id="svg_3" fill="#8C6E69" d="m338.759,370.577c76.138,-28.138 100.966,-102.069 91.015,-166.091c14.963,18.611 29.261,41.865 29.261,62.919c0,44.138 -79.448,123.586 -132.414,114.759c-9.632,-1.605 -18.456,-8.995 -26.362,-19.512c10.061,8.615 28.248,11.714 38.5,7.925z"/>
  <path id="svg_4" fill="#E6DCD2" d="m488.029,1.16c13.305,-0.117 24.012,10.933 23.971,24.238c-0.1,32.462 -3.647,92.324 -26.161,131.091c-8.118,13.978 -22.998,22.641 -39.163,22.641l-181.848,0l0,-26.483c0,-0.001 61.793,-150.07 223.201,-151.487z"/>
  <path id="svg_5" fill="#CFC1B4" d="m468.679,158.373c-87.989,-18.417 -147.023,-19.52 -203.851,3.582l0,-9.309c0,0 10.938,-26.445 35.498,-57.226c63.472,17.3 132.193,46.615 168.353,62.953z"/>
  <path id="svg_6" fill="#5A464B" d="m488.029,1.16c13.305,-0.117 24.012,10.933 23.971,24.238c-0.1,32.462 -3.647,92.324 -26.161,131.091c-1.536,2.645 -3.382,5.031 -5.365,7.272c-31.002,-14.351 -108.937,-48.932 -180.149,-68.341c33.965,-42.566 94.031,-93.438 187.704,-94.26z"/>
  <path id="svg_7" fill="#E6DCD2" d="m488.184,18.814l0.054,0c1.975,0 3.35,0.964 4.156,1.772c0.732,0.734 1.959,2.328 1.951,4.757c-0.085,27.43 -2.684,75.793 -18.037,110.89c-1.26,2.88 -4.67,4.105 -7.541,2.826c-30.461,-13.568 -78.658,-33.864 -127.872,-49.882c-4.161,-1.354 -5.297,-6.607 -2.116,-9.614c33.185,-31.376 81.949,-60.157 149.405,-60.749z"/>
  <path id="svg_8" fill="#FF9B46" d="m374.107,51.98c18.38,19.793 27.906,42.705 32.728,61.089c-20.685,-8.156 -43.162,-16.48 -65.941,-23.893c-4.161,-1.355 -5.297,-6.609 -2.116,-9.614c10.255,-9.696 22.007,-19.137 35.329,-27.582z"/>
  <g id="svg_9">
   <path id="svg_10" fill="#8C6E69" d="m493.449,52.099c-54.887,0.072 -93.099,12.213 -106.01,16.999c-3.261,-4.959 -6.98,-9.842 -11.16,-14.589c6.916,-2.941 50.232,-20 117.929,-20.014c-0.123,5.422 -0.371,11.317 -0.759,17.604z"/>
   <path id="svg_11" fill="#8C6E69" d="m492.121,68.075c-0.584,5.75 -1.341,11.603 -2.253,17.535c-16.3,-1.69 -53.095,-4.067 -91.789,2.855c-2.449,-5.411 -5.35,-10.893 -8.738,-16.354c43.466,-8.721 84.825,-5.954 102.78,-4.036z"/>
   <path id="svg_12" fill="#8C6E69" d="m481.532,122.359c-13.204,-3.108 -40.252,-8.774 -75.611,-12.468c-1.655,-5.822 -3.744,-11.994 -6.461,-18.372c41.146,3.798 72.155,10.31 86.69,13.771c-1.337,5.803 -2.825,11.539 -4.618,17.069z"/>
  </g>
  <path id="svg_13" fill="#E6DCD2" d="m115.862,169.197c0,0 -62.897,54.069 -62.897,98.207s79.448,123.586 132.414,114.759c43.538,-7.256 70.621,-132.414 70.621,-132.414l0,-79.448l-140.138,-1.104z"/>
  <path id="svg_14" fill="#CFC1B4" d="m256,209.147l0,-38.845l-140.138,-1.103c0,0 -9.005,7.752 -20.194,19.758c50.539,-3.208 120.608,2.861 160.332,20.19z"/>
  <path id="svg_15" fill="#8C6E69" d="m173.242,370.577c-76.138,-28.138 -100.966,-102.069 -91.015,-166.091c-14.963,18.611 -29.261,41.865 -29.261,62.919c0,44.138 79.448,123.586 132.414,114.759c9.632,-1.605 18.456,-8.995 26.362,-19.512c-10.061,8.615 -28.247,11.714 -38.5,7.925z"/>
  <path id="svg_16" fill="#E6DCD2" d="m256,130.577c-2.44,0 -4.414,-1.974 -4.414,-4.414c0,-17.19 -25.293,-65.551 -51.181,-84.733c-1.956,-1.449 -2.37,-4.215 -0.914,-6.173c1.449,-1.956 4.215,-2.362 6.173,-0.914c20.612,15.267 41.483,47.914 50.336,72.129c8.853,-24.215 29.725,-56.862 50.336,-72.129c1.965,-1.449 4.724,-1.043 6.173,0.914c1.457,1.956 1.043,4.724 -0.914,6.173c-25.888,19.181 -51.181,67.543 -51.181,84.733c0,2.44 -1.974,4.414 -4.414,4.414z"/>
  <g id="svg_17">
   <path id="svg_18" fill="#735F4B" d="m256,311.542c-4.879,0 -8.828,-3.948 -8.828,-8.828l0,-88.276c0,-4.879 3.948,-8.828 8.828,-8.828c4.879,0 8.828,3.948 8.828,8.828l0,88.276c0,4.88 -3.948,8.828 -8.828,8.828z"/>
   <circle id="svg_19" fill="#735F4B" r="13.241" cy="134.996" cx="256"/>
  </g>
  <path id="svg_20" fill="#E6DCD2" d="m23.971,1.16c-13.305,-0.117 -24.012,10.932 -23.971,24.238c0.1,32.462 3.647,92.324 26.161,131.091c8.118,13.978 22.998,22.641 39.162,22.641l181.849,0l0,-26.483c0.001,-0.001 -61.793,-150.07 -223.201,-151.487z"/>
  <path id="svg_21" fill="#CFC1B4" d="m43.321,158.373c87.989,-18.417 147.023,-19.52 203.851,3.582l0,-9.309c0,0 -10.938,-26.445 -35.498,-57.226c-63.472,17.3 -132.193,46.615 -168.353,62.953z"/>
  <path id="svg_22" fill="#5A464B" d="m23.971,1.16c-13.305,-0.117 -24.012,10.932 -23.971,24.238c0.1,32.462 3.647,92.324 26.161,131.091c1.536,2.645 3.382,5.031 5.365,7.272c31.002,-14.351 108.937,-48.932 180.149,-68.341c-33.965,-42.566 -94.031,-93.438 -187.704,-94.26z"/>
  <path id="svg_23" fill="#E6DCD2" d="m23.816,18.814l-0.054,0c-1.975,0 -3.35,0.964 -4.156,1.772c-0.732,0.734 -1.959,2.328 -1.951,4.757c0.085,27.43 2.684,75.793 18.037,110.89c1.26,2.88 4.67,4.105 7.541,2.826c30.461,-13.568 78.658,-33.864 127.872,-49.882c4.161,-1.354 5.297,-6.607 2.116,-9.614c-33.183,-31.376 -81.949,-60.157 -149.405,-60.749z"/>
  <path id="svg_24" fill="#FF9B46" d="m137.894,51.98c-18.38,19.793 -27.906,42.705 -32.728,61.089c20.685,-8.156 43.162,-16.48 65.941,-23.893c4.161,-1.355 5.297,-6.609 2.116,-9.614c-10.255,-9.696 -22.007,-19.137 -35.329,-27.582z"/>
  <path id="svg_25" fill="#7D6E5F" d="m256,240.922l0,0c-9.751,0 -17.655,-7.904 -17.655,-17.655l0,-61.793c0,-9.751 7.904,-17.655 17.655,-17.655l0,0c9.751,0 17.655,7.904 17.655,17.655l0,61.793c0,9.751 -7.904,17.655 -17.655,17.655z"/>
  <g id="svg_26">
   <circle id="svg_27" fill="#B1A598" r="8.828" cy="37.882" cx="203.035"/>
   <circle id="svg_28" fill="#B1A598" r="8.828" cy="37.882" cx="308.966"/>
  </g>
  <g id="svg_29">
   <path id="svg_30" fill="#8C6E69" d="m18.551,52.099c54.887,0.072 93.099,12.213 106.01,16.999c3.261,-4.959 6.98,-9.842 11.16,-14.589c-6.916,-2.941 -50.232,-20 -117.929,-20.014c0.124,5.422 0.372,11.317 0.759,17.604z"/>
   <path id="svg_31" fill="#8C6E69" d="m19.879,68.075c0.584,5.75 1.341,11.603 2.253,17.535c16.3,-1.69 53.095,-4.067 91.789,2.855c2.449,-5.411 5.35,-10.893 8.738,-16.354c-43.466,-8.721 -84.825,-5.954 -102.78,-4.036z"/>
   <path id="svg_32" fill="#8C6E69" d="m30.469,122.359c13.204,-3.108 40.253,-8.774 75.61,-12.468c1.655,-5.822 3.744,-11.994 6.461,-18.372c-41.146,3.798 -72.154,10.31 -86.69,13.771c1.337,5.803 2.825,11.539 4.619,17.069z"/>
  </g>
  <g id="svg_33"/>
  <g id="svg_34"/>
  <g id="svg_35"/>
  <g id="svg_36"/>
  <g id="svg_37"/>
  <g id="svg_38"/>
  <g id="svg_39"/>
  <g id="svg_40"/>
  <g id="svg_41"/>
  <g id="svg_42"/>
  <g id="svg_43"/>
  <g id="svg_44"/>
  <g id="svg_45"/>
  <g id="svg_46"/>
  <g id="svg_47"/>
 </g>
</svg>