<svg width="512" height="373" xmlns="http://www.w3.org/2000/svg">

 <g>
  <title>background</title>
  <rect fill="none" id="canvas_background" height="375" width="514" y="-1" x="-1"/>
 </g>
 <g>
  <title>Layer 1</title>
  <path id="svg_1" fill="#FFB441" d="m256,221.31c0,88.276 44.138,150.069 79.448,150.069c52.966,0 141.241,-79.448 141.241,-123.586c0,-26.483 -44.138,-70.621 -44.138,-70.621l-176.551,0l0,44.138z"/>
  <path id="svg_2" fill="#FFCD73" d="m289.88,340.709c-19.188,-26.524 -33.88,-68.513 -33.88,-119.399l0,-44.138l97.11,0c-35.482,27.206 -90.874,84.659 -63.23,163.537z"/>
  <path id="svg_3" fill="#E6DCD2" d="m467.862,0.621c26.483,0 44.138,8.828 44.138,35.31c0,35.31 -17.655,150.069 -52.966,150.069s-194.207,0 -194.207,0l-8.827,-52.966c0,0 88.276,-132.413 211.862,-132.413z"/>
  <path id="svg_4" fill="#CFC1B4" d="m467.862,0.621c26.483,0 44.138,8.828 44.138,35.31c0,6.975 -0.701,17.077 -2.078,28.756l-28.267,2.141c-5.635,-25.105 -149.191,-20.157 -220.031,99.95l-5.624,-33.744c0,0 88.276,-132.413 211.862,-132.413z"/>
  <path id="svg_5" fill="#463246" d="m476.69,44.759c-13.933,-44.957 -80.092,-25.649 -116.708,-10.975c30.98,-19.015 67.529,-33.163 107.881,-33.163c26.483,0 44.138,8.828 44.138,35.31c-0.001,35.31 -17.656,150.069 -52.967,150.069c-0.404,0 -0.904,0 -1.34,0c7.588,-24.551 30.43,-104.351 18.996,-141.241z"/>
  <path id="svg_6" fill="#FFB441" d="m256,221.31c0,88.276 -44.138,150.069 -79.448,150.069c-52.966,0 -141.241,-79.448 -141.241,-123.586c0,-26.483 44.138,-70.621 44.138,-70.621l176.551,0l0,44.138z"/>
  <path id="svg_7" fill="#FFCD73" d="m222.12,340.709c19.188,-26.524 33.88,-68.513 33.88,-119.399l0,-44.138l-97.11,0c35.482,27.206 90.874,84.659 63.23,163.537z"/>
  <path id="svg_8" fill="#E6DCD2" d="m44.138,0.621c-26.483,0 -44.138,8.827 -44.138,35.31c0,35.31 17.655,150.069 52.966,150.069s194.207,0 194.207,0l8.827,-52.966c0,0 -88.276,-132.413 -211.862,-132.413z"/>
  <path id="svg_9" fill="#CFC1B4" d="m44.138,0.621c-26.483,0 -44.138,8.827 -44.138,35.31c0,6.975 0.701,17.077 2.078,28.756l28.267,2.141c5.636,-25.105 149.191,-20.157 220.031,99.95l5.624,-33.744c0,0 -88.276,-132.413 -211.862,-132.413z"/>
  <path id="svg_10" fill="#908490" d="m256,128.621c-2.13,0 -3.957,-1.526 -4.345,-3.625c-8.655,-47.634 -26.112,-95.901 -26.284,-96.384c-0.836,-2.293 0.345,-4.823 2.638,-5.655c2.293,-0.836 4.828,0.349 5.655,2.638c0.156,0.418 13.086,36.185 22.336,76.737c9.25,-40.552 22.182,-76.319 22.336,-76.737c0.828,-2.289 3.362,-3.47 5.655,-2.638c2.293,0.832 3.474,3.362 2.638,5.655c-0.172,0.483 -17.63,48.78 -26.284,96.384c-0.388,2.099 -2.215,3.625 -4.345,3.625z"/>
  <path id="svg_11" fill="#463246" d="m256,141.862l0,0c-4.875,0 -8.828,-3.953 -8.828,-8.828l0,-17.655c0,-4.875 3.953,-8.828 8.828,-8.828l0,0c4.875,0 8.828,3.953 8.828,8.828l0,17.655c0,4.876 -3.953,8.828 -8.828,8.828z"/>
  <path id="svg_12" fill="#6B5B6B" d="m256,221.31l0,0c-9.751,0 -17.655,-7.904 -17.655,-17.655l0,-61.793c0,-9.751 7.904,-17.655 17.655,-17.655l0,0c9.751,0 17.655,7.904 17.655,17.655l0,61.793c0,9.751 -7.904,17.655 -17.655,17.655z"/>
  <path id="svg_13" fill="#463246" d="m35.31,44.759c13.933,-44.957 80.092,-25.649 116.708,-10.975c-30.98,-19.015 -67.528,-33.163 -107.88,-33.163c-26.483,0 -44.138,8.827 -44.138,35.31c0,35.31 17.655,150.069 52.966,150.069c0.404,0 0.904,0 1.34,0c-7.588,-24.551 -30.43,-104.351 -18.996,-141.241z"/>
  <g id="svg_14"/>
  <g id="svg_15"/>
  <g id="svg_16"/>
  <g id="svg_17"/>
  <g id="svg_18"/>
  <g id="svg_19"/>
  <g id="svg_20"/>
  <g id="svg_21"/>
  <g id="svg_22"/>
  <g id="svg_23"/>
  <g id="svg_24"/>
  <g id="svg_25"/>
  <g id="svg_26"/>
  <g id="svg_27"/>
  <g id="svg_28"/>
 </g>
</svg>