<svg width="512" height="338" xmlns="http://www.w3.org/2000/svg">

 <g>
  <title>background</title>
  <rect fill="none" id="canvas_background" height="340" width="514" y="-1" x="-1"/>
 </g>
 <g>
  <title>Layer 1</title>
  <path id="svg_1" fill="#E6DCD2" d="m353.124,151.873c105.954,61.806 99.493,119.836 79.465,150.101c-24.833,37.525 -76.338,41.295 -105.954,26.488c-35.318,-17.659 -61.806,-150.101 -61.806,-150.101l0,-26.488l88.295,0z"/>
  <path id="svg_2" fill="#C2B5AF" d="m369.062,309.588c1.408,4.304 -1.483,8.762 -5.98,9.306c-17.579,2.127 -35.103,-0.738 -48.292,-7.333c-3.099,-1.55 -6.124,-4.025 -9.076,-7.174c6.476,11.55 13.499,20.364 20.92,24.075c29.615,14.808 81.121,11.037 105.954,-26.488c14.001,-21.157 21.314,-55.889 -11.712,-95.988c5.367,9.31 8.588,18.215 10.259,26.638c-46.538,-41.245 -98.837,-66.388 -138.402,-80.751l-27.904,0l0,22.938c62.873,43.899 91.347,95.392 104.233,134.777zm-82.625,-140.906c40.656,14.866 95.605,41.31 142.065,85.411c1.988,1.887 2.961,4.739 2.356,7.413c-2.04,9.012 -5.74,16.958 -10.114,23.568c-7.045,10.646 -16.257,18.519 -26.493,24.06c-2.949,1.597 -6.561,0.226 -7.561,-2.974c-1.85,-5.923 -4.015,-12.1 -6.621,-18.534c-13.701,-33.861 -40.689,-78.676 -93.632,-118.944z"/>
  <path id="svg_3" fill="#E6DCD2" d="m484.959,1.47c13.495,-0.028 25.462,9.701 26.78,23.131c0.981,9.993 -0.573,23.097 -8.513,38.978c-26.488,52.977 -8.829,70.636 -44.147,97.124s-123.613,-8.829 -194.248,-8.829c-0.002,-0.001 70.634,-150.102 220.128,-150.404z"/>
  <path id="svg_4" fill="#C2B5AF" d="m264.829,151.873c0,0 70.958,-150.786 221.153,-150.403c12.957,0.033 24.319,9.752 25.705,22.635c1.082,10.053 -0.39,23.329 -8.462,39.473c-8.387,16.773 -12.339,29.99 -14.957,41.084l-11.531,-5.766c7.353,-29.412 -58.782,-46.464 -137.198,14.933c-2.598,2.034 -0.819,6.167 2.465,5.845c62.697,-6.17 104.176,6.417 136.837,18.933c-2.481,4.93 -5.974,9.726 -11.085,14.675c-36.14,-13.496 -81.223,-25.188 -153.795,-11.986c-3.867,0.703 -7.476,2.638 -10.17,5.5c-2.18,2.314 -4.361,4.69 -6.545,7.151c-11.035,-1.24 -21.93,-2.074 -32.417,-2.074z"/>
  <path id="svg_5" fill="#8B7A7A" d="m477.783,84.297c7.093,-16.586 8.481,-30.272 7.604,-40.707c-1.177,-14.026 -11.867,-24.187 -23.922,-24.159c-93.835,0.222 -152.883,77.685 -179.703,123.731c-3.218,5.526 -9.126,8.773 -15.521,8.717c-0.471,-0.004 -0.943,-0.007 -1.412,-0.007c0,0 70.958,-150.786 221.153,-150.403c12.957,0.033 24.319,9.752 25.705,22.635c1.082,10.053 -0.39,23.329 -8.462,39.473c-27.14,54.279 -7.934,71.482 -46.85,99.094c-0.287,-0.204 -0.002,-0.002 -0.289,-0.206c7.882,-18.495 5.014,-39.16 21.697,-78.168z"/>
  <g id="svg_6">
   <path id="svg_7" fill="#695564" d="m406.101,81.237c2.259,0 4.518,-0.862 6.242,-2.587l8.829,-8.829c2.009,-2.004 2.931,-4.854 2.474,-7.656c-0.457,-2.802 -2.233,-5.213 -4.768,-6.484l-6.699,-3.35l0.163,-0.168c3.449,-3.449 3.449,-9.036 0,-12.485c-3.449,-3.449 -9.037,-3.449 -12.486,0l-8.829,8.829c-2.009,2.004 -2.931,4.854 -2.474,7.657c0.457,2.802 2.233,5.213 4.768,6.484l6.699,3.35l-0.163,0.168c-3.449,3.449 -3.449,9.037 0,12.486c1.726,1.723 3.984,2.585 6.244,2.585z"/>
   <path id="svg_8" fill="#695564" d="m450.248,90.067c2.259,0 4.518,-0.862 6.242,-2.587c3.449,-3.449 3.449,-9.037 0,-12.486l-8.829,-8.829c-3.449,-3.449 -9.037,-3.449 -12.486,0c-3.449,3.449 -3.449,9.037 0,12.486l8.829,8.829c1.727,1.725 3.985,2.587 6.244,2.587z"/>
   <path id="svg_9" fill="#695564" d="m441.419,125.385c2.259,0 4.518,-0.862 6.242,-2.587c3.449,-3.449 3.449,-9.037 0,-12.486l-7.269,-7.273c0.656,-1.237 1.026,-2.647 1.026,-4.143c0,-4.876 -3.949,-8.829 -8.829,-8.829l-8.829,0c-3.569,0 -6.794,2.151 -8.157,5.45c-1.371,3.302 -0.613,7.097 1.914,9.623l17.659,17.659c1.725,1.724 3.983,2.586 6.243,2.586z"/>
   <path id="svg_10" fill="#695564" d="m423.76,151.873c2.259,0 4.518,-0.862 6.242,-2.587c3.449,-3.449 3.449,-9.036 0,-12.485l-17.659,-17.659c-3.449,-3.449 -9.037,-3.449 -12.486,0c-3.449,3.449 -3.449,9.037 0,12.486l17.659,17.659c1.726,1.724 3.984,2.586 6.244,2.586z"/>
   <path id="svg_11" fill="#695564" d="m361.953,143.044l8.829,0c4.88,0 8.829,-3.953 8.829,-8.829s-3.949,-8.829 -8.829,-8.829l-8.829,0c-4.88,0 -8.829,3.953 -8.829,8.829s3.949,8.829 8.829,8.829z"/>
   <path id="svg_12" fill="#695564" d="m383.674,229.131c0.534,0 1.147,-0.09 1.681,-0.177c0.613,-0.091 1.147,-0.267 1.673,-0.53c0.534,-0.177 1.061,-0.444 1.5,-0.798c0.534,-0.263 0.975,-0.703 1.414,-1.056c1.595,-1.678 2.561,-3.975 2.561,-6.269c0,-2.298 -0.966,-4.591 -2.561,-6.269c-0.439,-0.353 -0.88,-0.707 -1.414,-1.061c-0.439,-0.353 -0.966,-0.621 -1.5,-0.798c-0.526,-0.263 -1.061,-0.439 -1.673,-0.526c-1.681,-0.353 -3.449,-0.177 -5.036,0.526c-1.147,0.444 -2.121,1.061 -2.915,1.859c-1.673,1.678 -2.561,3.971 -2.561,6.269c0,2.293 0.888,4.591 2.561,6.269c1.683,1.586 3.976,2.561 6.27,2.561z"/>
   <path id="svg_13" fill="#695564" d="m406.101,257.827c1.147,0 2.293,-0.177 3.354,-0.707c1.147,-0.444 2.121,-1.061 2.915,-1.854c1.595,-1.678 2.561,-3.975 2.561,-6.269c0,-2.298 -0.966,-4.591 -2.561,-6.269c-0.794,-0.798 -1.768,-1.414 -2.915,-1.859c-3.173,-1.409 -7.149,-0.617 -9.623,1.859c-1.587,1.678 -2.561,3.971 -2.561,6.269c0,2.293 0.975,4.591 2.561,6.269c1.682,1.586 3.975,2.561 6.269,2.561z"/>
   <path id="svg_14" fill="#695564" d="m363.333,308.23c4.88,0 8.872,-3.953 8.872,-8.829s-3.897,-8.829 -8.778,-8.829l-0.095,0c-4.88,0 -8.829,3.953 -8.829,8.829s3.949,8.829 8.83,8.829z"/>
   <path id="svg_15" fill="#695564" d="m398.004,292.407c4.88,0 8.881,-3.953 8.881,-8.829s-3.906,-8.829 -8.786,-8.829l-0.095,0c-4.88,0 -8.829,3.953 -8.829,8.829s3.949,8.829 8.829,8.829z"/>
   <path id="svg_16" fill="#695564" d="m336.172,284.668c2.388,0 4.596,-0.884 6.269,-2.561c0.794,-0.798 1.5,-1.768 1.94,-2.915c0.448,-1.061 0.621,-2.207 0.621,-3.354c0,-1.151 -0.172,-2.298 -0.621,-3.359c-0.439,-1.056 -1.147,-2.031 -1.94,-2.915c-3.268,-3.264 -9.183,-3.264 -12.451,0c-1.673,1.681 -2.647,3.975 -2.647,6.273c0,2.384 0.975,4.591 2.647,6.269c1.595,1.678 3.889,2.562 6.182,2.562z"/>
   <path id="svg_17" fill="#695564" d="m485.566,63.578l17.659,0c-3.191,6.382 -5.714,12.225 -7.793,17.659l-9.866,0c-4.88,0 -8.829,-3.953 -8.829,-8.829c-0.001,-4.876 3.948,-8.83 8.829,-8.83z"/>
   <path id="svg_18" fill="#695564" d="m474.15,92.654l13.73,13.73c-1.745,7.634 -2.946,14.292 -4.596,20.375l-21.619,-21.619c-3.449,-3.449 -3.449,-9.037 0,-12.486c3.45,-3.449 9.036,-3.449 12.485,0z"/>
   <path id="svg_19" fill="#695564" d="m465.321,127.972l12.522,12.522c-2.575,4.607 -6.123,9.132 -11.156,13.815l-13.851,-13.851c-3.449,-3.449 -3.449,-9.037 0,-12.486c3.449,-3.449 9.036,-3.449 12.485,0z"/>
   <path id="svg_20" fill="#695564" d="m428.356,9.227c6.382,-1.768 12.945,-3.27 19.713,-4.461l8.422,8.422c2.691,2.686 3.354,6.79 1.656,10.191l-2.44,4.88l3.372,0c4.88,0 8.829,3.953 8.829,8.829s-3.949,8.829 -8.829,8.829l-17.659,0c-3.061,0 -5.898,-1.587 -7.511,-4.186c-1.612,-2.604 -1.759,-5.855 -0.388,-8.592l5.984,-11.968l-9.571,-9.571c-0.701,-0.699 -1.161,-1.53 -1.578,-2.373z"/>
   <path id="svg_21" fill="#695564" d="m364.54,105.139l-4.975,-4.971l-21.307,7.106c-0.914,0.306 -1.863,0.453 -2.793,0.453c-2.302,0 -4.561,-0.905 -6.242,-2.587l-17.107,-17.107c-0.687,-0.686 -1.131,-1.503 -1.544,-2.325c3.555,-3.974 7.331,-7.971 11.308,-11.967c0.981,0.429 1.918,1.004 2.722,1.808l13.253,13.249l21.307,-7.106c3.173,-1.061 6.674,-0.233 9.036,2.135l8.829,8.829c3.449,3.449 3.449,9.037 0,12.486c-3.45,3.447 -9.038,3.446 -12.487,-0.003z"/>
  </g>
  <path id="svg_22" fill="#E6DCD2" d="m158.875,151.873c-105.953,61.806 -99.492,119.836 -79.465,150.101c24.833,37.525 76.339,41.295 105.954,26.488c35.318,-17.659 61.806,-150.101 61.806,-150.101l0,-26.488l-88.295,0z"/>
  <path id="svg_23" fill="#C2B5AF" d="m247.17,174.811l0,-22.938l-27.903,0c-39.565,14.363 -91.865,39.506 -138.402,80.751c1.671,-8.422 4.892,-17.329 10.259,-26.638c-33.027,40.099 -25.714,74.831 -11.712,95.988c24.833,37.525 76.338,41.297 105.954,26.488c7.42,-3.709 14.443,-12.523 20.92,-24.075c-2.95,3.15 -5.976,5.625 -9.076,7.174c-13.188,6.595 -30.711,9.46 -48.292,7.333c-4.496,-0.544 -7.388,-5.002 -5.98,-9.306c12.887,-39.385 41.361,-90.878 104.232,-134.777zm-115.24,112.815c-2.606,6.434 -4.771,12.611 -6.621,18.534c-1,3.202 -4.612,4.571 -7.561,2.974c-10.237,-5.542 -19.448,-13.414 -26.493,-24.06c-4.374,-6.609 -8.075,-14.556 -10.114,-23.568c-0.605,-2.673 0.368,-5.526 2.356,-7.413c46.46,-44.101 101.409,-70.545 142.065,-85.411c-52.942,40.268 -79.931,85.083 -93.632,118.944z"/>
  <path id="svg_24" fill="#E6DCD2" d="m27.042,1.47c-13.495,-0.028 -25.462,9.701 -26.78,23.131c-0.981,9.993 0.573,23.097 8.513,38.978c26.488,52.977 8.829,70.636 44.147,97.124s123.613,-8.829 194.248,-8.829c0,-0.001 -70.636,-150.102 -220.128,-150.404z"/>
  <path id="svg_25" fill="#C2B5AF" d="m247.17,151.873c0,0 -70.958,-150.786 -221.153,-150.403c-12.957,0.033 -24.318,9.752 -25.704,22.635c-1.082,10.053 0.39,23.329 8.462,39.473c8.387,16.773 12.339,29.99 14.957,41.084l11.531,-5.766c-7.353,-29.412 58.782,-46.464 137.198,14.933c2.598,2.034 0.819,6.167 -2.465,5.845c-62.697,-6.17 -104.176,6.417 -136.837,18.933c2.481,4.93 5.974,9.726 11.085,14.675c36.14,-13.496 81.223,-25.188 153.795,-11.986c3.867,0.703 7.476,2.638 10.17,5.5c2.18,2.314 4.361,4.69 6.545,7.151c11.036,-1.24 21.93,-2.074 32.416,-2.074z"/>
  <path id="svg_26" fill="#8B7A7A" d="m34.218,84.297c-7.093,-16.586 -8.481,-30.272 -7.604,-40.707c1.177,-14.026 11.867,-24.187 23.922,-24.159c93.835,0.222 152.883,77.685 179.703,123.731c3.218,5.526 9.126,8.773 15.521,8.717c0.471,-0.004 0.943,-0.007 1.412,-0.007c0,0 -70.958,-150.786 -221.153,-150.403c-12.958,0.033 -24.319,9.752 -25.705,22.635c-1.082,10.053 0.39,23.329 8.462,39.473c27.14,54.279 7.934,71.482 46.85,99.094c0.287,-0.204 0.002,-0.002 0.289,-0.206c-7.884,-18.495 -5.015,-39.16 -21.697,-78.168z"/>
  <g id="svg_27">
   <path id="svg_28" fill="#695564" d="m105.899,81.237c-2.259,0 -4.518,-0.862 -6.242,-2.587l-8.829,-8.829c-2.009,-2.004 -2.931,-4.854 -2.474,-7.656c0.457,-2.802 2.233,-5.213 4.768,-6.484l6.699,-3.35l-0.163,-0.168c-3.449,-3.449 -3.449,-9.036 0,-12.485c3.449,-3.449 9.037,-3.449 12.486,0l8.829,8.829c2.009,2.004 2.931,4.854 2.474,7.657c-0.457,2.802 -2.233,5.213 -4.768,6.484l-6.699,3.35l0.163,0.168c3.449,3.449 3.449,9.037 0,12.486c-1.726,1.723 -3.985,2.585 -6.244,2.585z"/>
   <path id="svg_29" fill="#695564" d="m61.751,90.067c-2.259,0 -4.518,-0.862 -6.242,-2.587c-3.449,-3.449 -3.449,-9.037 0,-12.486l8.829,-8.829c3.449,-3.449 9.037,-3.449 12.486,0c3.449,3.449 3.449,9.037 0,12.486l-8.829,8.829c-1.725,1.725 -3.984,2.587 -6.244,2.587z"/>
   <path id="svg_30" fill="#695564" d="m70.581,125.385c-2.259,0 -4.518,-0.862 -6.242,-2.587c-3.449,-3.449 -3.449,-9.037 0,-12.486l7.269,-7.273c-0.656,-1.237 -1.026,-2.647 -1.026,-4.143c0,-4.876 3.949,-8.829 8.829,-8.829l8.829,0c3.569,0 6.794,2.151 8.157,5.45c1.371,3.302 0.613,7.097 -1.914,9.623l-17.659,17.659c-1.725,1.724 -3.984,2.586 -6.243,2.586z"/>
   <path id="svg_31" fill="#695564" d="m88.24,151.873c-2.259,0 -4.518,-0.862 -6.242,-2.587c-3.449,-3.449 -3.449,-9.036 0,-12.485l17.659,-17.659c3.449,-3.449 9.037,-3.449 12.486,0c3.449,3.449 3.449,9.037 0,12.486l-17.659,17.659c-1.726,1.724 -3.985,2.586 -6.244,2.586z"/>
   <path id="svg_32" fill="#695564" d="m150.046,143.044l-8.829,0c-4.88,0 -8.829,-3.953 -8.829,-8.829s3.949,-8.829 8.829,-8.829l8.829,0c4.88,0 8.829,3.953 8.829,8.829s-3.949,8.829 -8.829,8.829z"/>
   <path id="svg_33" fill="#695564" d="m128.327,229.131c-0.534,0 -1.147,-0.09 -1.681,-0.177c-0.613,-0.091 -1.147,-0.267 -1.673,-0.53c-0.534,-0.177 -1.061,-0.444 -1.5,-0.798c-0.534,-0.263 -0.975,-0.703 -1.414,-1.056c-1.595,-1.678 -2.561,-3.975 -2.561,-6.269c0,-2.298 0.966,-4.591 2.561,-6.269c0.439,-0.353 0.88,-0.707 1.414,-1.061c0.439,-0.353 0.966,-0.621 1.5,-0.798c0.526,-0.263 1.061,-0.439 1.673,-0.526c1.681,-0.353 3.449,-0.177 5.036,0.526c1.147,0.444 2.121,1.061 2.915,1.859c1.673,1.678 2.561,3.971 2.561,6.269c0,2.293 -0.888,4.591 -2.561,6.269c-1.683,1.586 -3.977,2.561 -6.27,2.561z"/>
   <path id="svg_34" fill="#695564" d="m105.899,257.827c-1.147,0 -2.293,-0.177 -3.354,-0.707c-1.147,-0.444 -2.121,-1.061 -2.915,-1.854c-1.595,-1.678 -2.561,-3.975 -2.561,-6.269c0,-2.298 0.966,-4.591 2.561,-6.269c0.794,-0.798 1.768,-1.414 2.915,-1.859c3.173,-1.409 7.149,-0.617 9.623,1.859c1.587,1.678 2.561,3.971 2.561,6.269c0,2.293 -0.975,4.591 -2.561,6.269c-1.681,1.586 -3.976,2.561 -6.269,2.561z"/>
   <path id="svg_35" fill="#695564" d="m148.666,308.23c-4.88,0 -8.873,-3.953 -8.873,-8.829s3.897,-8.829 8.778,-8.829l0.095,0c4.88,0 8.829,3.953 8.829,8.829s-3.948,8.829 -8.829,8.829z"/>
   <path id="svg_36" fill="#695564" d="m113.995,292.407c-4.88,0 -8.881,-3.953 -8.881,-8.829s3.906,-8.829 8.786,-8.829l0.095,0c4.88,0 8.829,3.953 8.829,8.829s-3.948,8.829 -8.829,8.829z"/>
   <path id="svg_37" fill="#695564" d="m175.828,284.668c-2.388,0 -4.596,-0.884 -6.269,-2.561c-0.794,-0.798 -1.5,-1.768 -1.94,-2.915c-0.448,-1.061 -0.621,-2.207 -0.621,-3.354c0,-1.151 0.172,-2.298 0.621,-3.359c0.439,-1.056 1.147,-2.031 1.94,-2.915c3.268,-3.264 9.183,-3.264 12.451,0c1.673,1.681 2.647,3.975 2.647,6.273c0,2.384 -0.975,4.591 -2.647,6.269c-1.595,1.678 -3.888,2.562 -6.182,2.562z"/>
  </g>
  <path id="svg_38" fill="#908490" d="m256,147.458c-1.897,0 -3.587,-1.216 -4.191,-3.017l-26.488,-79.465c-0.767,-2.316 0.483,-4.815 2.793,-5.584c2.311,-0.771 4.811,0.479 5.588,2.789l22.298,66.902l22.298,-66.902c0.785,-2.311 3.293,-3.557 5.588,-2.789c2.311,0.767 3.562,3.268 2.793,5.584l-26.488,79.465c-0.604,1.801 -2.294,3.017 -4.191,3.017z"/>
  <path id="svg_39" fill="#463246" d="m256,125.385c-4.876,0 -8.829,3.953 -8.829,8.829l0,17.659l17.659,0l0,-17.659c-0.001,-4.877 -3.953,-8.829 -8.83,-8.829z"/>
  <path id="svg_40" fill="#908490" d="m256,284.315c-4.88,0 -8.829,-3.953 -8.829,-8.829l0,-97.124c0,-4.876 3.949,-8.829 8.829,-8.829c4.88,0 8.829,3.953 8.829,8.829l0,97.124c0,4.876 -3.949,8.829 -8.829,8.829z"/>
  <path id="svg_41" fill="#5A464B" d="m256,187.191l0,0c-9.753,0 -17.659,-7.906 -17.659,-17.659l0,-8.829c0,-9.753 7.906,-17.659 17.659,-17.659l0,0c9.753,0 17.659,7.906 17.659,17.659l0,8.829c0,9.752 -7.906,17.659 -17.659,17.659z"/>
  <g id="svg_42">
   <path id="svg_43" fill="#695564" d="m26.433,63.578l-17.659,0c3.191,6.382 5.714,12.225 7.793,17.659l9.866,0c4.88,0 8.829,-3.953 8.829,-8.829c0.001,-4.876 -3.948,-8.83 -8.829,-8.83z"/>
   <path id="svg_44" fill="#695564" d="m37.85,92.654l-13.73,13.73c1.745,7.634 2.946,14.292 4.596,20.375l21.619,-21.619c3.449,-3.449 3.449,-9.037 0,-12.486c-3.448,-3.449 -9.036,-3.449 -12.485,0z"/>
   <path id="svg_45" fill="#695564" d="m46.679,127.972l-12.522,12.522c2.575,4.607 6.123,9.132 11.156,13.815l13.851,-13.851c3.449,-3.449 3.449,-9.037 0,-12.486c-3.449,-3.449 -9.036,-3.449 -12.485,0z"/>
   <path id="svg_46" fill="#695564" d="m83.644,9.227c-6.382,-1.768 -12.945,-3.27 -19.713,-4.461l-8.422,8.422c-2.691,2.686 -3.354,6.79 -1.656,10.191l2.44,4.88l-3.372,0c-4.88,0 -8.829,3.953 -8.829,8.829s3.949,8.829 8.829,8.829l17.659,0c3.061,0 5.898,-1.587 7.511,-4.186c1.612,-2.604 1.759,-5.855 0.388,-8.592l-5.984,-11.968l9.571,-9.571c0.702,-0.699 1.162,-1.53 1.578,-2.373z"/>
   <path id="svg_47" fill="#695564" d="m147.46,105.139l4.975,-4.971l21.307,7.106c0.914,0.306 1.863,0.453 2.793,0.453c2.302,0 4.562,-0.905 6.242,-2.587l17.107,-17.107c0.686,-0.686 1.131,-1.503 1.544,-2.325c-3.555,-3.974 -7.331,-7.971 -11.308,-11.967c-0.981,0.429 -1.918,1.004 -2.722,1.808l-13.253,13.249l-21.307,-7.106c-3.173,-1.061 -6.674,-0.233 -9.037,2.135l-8.829,8.829c-3.449,3.449 -3.449,9.037 0,12.486c3.45,3.447 9.039,3.446 12.488,-0.003z"/>
  </g>
  <g id="svg_48"/>
  <g id="svg_49"/>
  <g id="svg_50"/>
  <g id="svg_51"/>
  <g id="svg_52"/>
  <g id="svg_53"/>
  <g id="svg_54"/>
  <g id="svg_55"/>
  <g id="svg_56"/>
  <g id="svg_57"/>
  <g id="svg_58"/>
  <g id="svg_59"/>
  <g id="svg_60"/>
  <g id="svg_61"/>
  <g id="svg_62"/>
 </g>
</svg>