<svg width="512" height="325" xmlns="http://www.w3.org/2000/svg">

 <g>
  <title>background</title>
  <rect fill="none" id="canvas_background" height="327" width="514" y="-1" x="-1"/>
 </g>
 <g>
  <title>Layer 1</title>
  <path id="svg_1" fill="#FFA046" d="m388.414,165.029c26.483,0 61.793,17.655 61.793,44.138c0,26.483 -44.138,114.759 -105.931,114.759c-17.655,0 -88.276,-114.759 -88.276,-114.759l0,-44.138c0,0 114.759,0 132.414,0z"/>
  <g id="svg_2">
   <path id="svg_3" fill="#FF8C41" d="m256,173.254c60.266,23.326 148.531,59.562 182.431,73.538c-17.068,34.825 -51.373,77.132 -94.155,77.132c-17.655,0 -88.276,-150.069 -88.276,-150.069l0,-0.601z"/>
   <path id="svg_4" fill="#FF8C41" d="m450.207,6.132c27.251,-6.055 61.793,-8.827 61.793,17.656s-20.499,43.546 -26.483,79.448c-4.108,24.648 -10.127,39.737 -15.391,48.826c-4.692,8.105 -13.428,12.966 -22.793,12.966l-182.505,0l0,-8.828c0,0.001 105.931,-132.412 185.379,-150.068z"/>
  </g>
  <path id="svg_5" fill="#FF783C" d="m264.828,156.201c0,0 105.931,-132.414 185.379,-150.069c27.251,-6.055 61.793,-8.827 61.793,17.656c0,2.85 -0.337,5.551 -0.768,8.22c-32.22,-2.874 -102.882,-9.594 -237.577,133.022l-8.828,0l0,-8.829l0.001,0z"/>
  <g id="svg_6">
   <path id="svg_7" fill="#594759" d="m485.517,50.27l20.011,0c-2.499,5.686 -5.425,11.463 -8.341,17.655l-11.67,0c-4.879,0 -8.828,-3.953 -8.828,-8.828s3.949,-8.827 8.828,-8.827z"/>
   <path id="svg_8" fill="#594759" d="m459.034,94.408c0,-4.875 3.948,-8.828 8.828,-8.828l22.217,0c-1.827,5.432 -3.479,11.156 -4.562,17.655l-17.655,0c-4.879,0.001 -8.828,-3.952 -8.828,-8.827z"/>
   <path id="svg_9" fill="#594759" d="m459.034,129.719c0,-4.875 3.948,-8.828 8.828,-8.828l14.018,0c-1.709,6.866 -3.561,12.71 -5.449,17.655l-8.569,0c-4.879,0 -8.828,-3.952 -8.828,-8.827z"/>
   <circle id="svg_10" fill="#594759" r="8.828" cy="85.582" cx="370.67"/>
   <circle id="svg_11" fill="#594759" r="8.828" cy="85.582" cx="423.636"/>
   <circle id="svg_12" fill="#594759" r="8.828" cy="112.065" cx="397.241"/>
   <circle id="svg_13" fill="#594759" r="8.828" cy="112.065" cx="344.276"/>
   <circle id="svg_14" fill="#594759" r="8.828" cy="138.591" cx="370.714"/>
   <path id="svg_15" fill="#594759" d="m407.172,234.546c12.162,-31.08 7.785,-51.307 -9.294,-68.8c24.708,3.502 52.329,19.996 52.329,43.421c0,26.01 -42.593,111.572 -102.659,114.614c10.731,-20.463 43.767,-48.711 59.624,-89.235z"/>
   <circle id="svg_16" fill="#594759" r="8.828" cy="200.34" cx="379.586"/>
   <circle id="svg_17" fill="#594759" r="8.828" cy="235.651" cx="361.843"/>
  </g>
  <g id="svg_18">
   <circle id="svg_19" fill="#FF783C" r="8.828" cy="204.015" cx="430.345"/>
   <circle id="svg_20" fill="#FF783C" r="7.54" cy="234.547" cx="423.724"/>
   <circle id="svg_21" fill="#FF783C" r="6.98" cy="261.758" cx="410.847"/>
   <circle id="svg_22" fill="#FF783C" r="6.613" cy="284.379" cx="393.931"/>
  </g>
  <path id="svg_23" fill="#FFA046" d="m123.586,165.029c-26.483,0 -61.793,17.655 -61.793,44.138c0,26.483 44.138,114.759 105.931,114.759c17.655,0 88.276,-114.759 88.276,-114.759l0,-44.138c0,0 -114.759,0 -132.414,0z"/>
  <g id="svg_24">
   <path id="svg_25" fill="#FF8C41" d="m256,173.254c-60.266,23.326 -148.531,59.562 -182.431,73.538c17.068,34.825 51.373,77.132 94.155,77.132c17.655,0 88.276,-150.069 88.276,-150.069l0,-0.601z"/>
   <path id="svg_26" fill="#FF8C41" d="m61.793,6.132c-27.251,-6.055 -61.793,-8.827 -61.793,17.656s20.499,43.546 26.483,79.448c4.108,24.648 10.127,39.737 15.391,48.826c4.692,8.105 13.428,12.966 22.793,12.966l182.506,0l0,-8.828c-0.001,0.001 -105.932,-132.412 -185.38,-150.068z"/>
  </g>
  <path id="svg_27" fill="#FF783C" d="m247.172,156.201c0,0 -105.931,-132.414 -185.379,-150.069c-27.251,-6.055 -61.793,-8.827 -61.793,17.656c0,2.85 0.337,5.551 0.768,8.22c32.22,-2.874 102.882,-9.594 237.577,133.022l8.828,0l0,-8.829l-0.001,0z"/>
  <g id="svg_28">
   <path id="svg_29" fill="#908490" d="m247.164,151.788c-2.044,0 -3.88,-1.436 -4.31,-3.521c-17.112,-82.914 -68.362,-120.522 -68.879,-120.893c-1.974,-1.422 -2.431,-4.181 -1.009,-6.159c1.422,-1.987 4.172,-2.435 6.164,-1.013c2.216,1.594 54.569,40.022 72.362,126.28c0.5,2.388 -1.043,4.724 -3.431,5.216c-0.294,0.059 -0.595,0.09 -0.897,0.09z"/>
   <path id="svg_30" fill="#908490" d="m264.836,151.788c-0.301,0 -0.604,-0.03 -0.897,-0.09c-2.388,-0.491 -3.932,-2.828 -3.431,-5.216c17.793,-86.259 70.146,-124.685 72.362,-126.28c1.992,-1.427 4.733,-0.966 6.155,1.009c1.422,1.978 0.974,4.733 -1,6.159c-0.518,0.375 -51.81,38.198 -68.879,120.896c-0.431,2.086 -2.267,3.522 -4.31,3.522z"/>
  </g>
  <g id="svg_31">
   <circle id="svg_32" fill="#6B5B6B" r="8.828" cy="23.789" cx="176.552"/>
   <circle id="svg_33" fill="#6B5B6B" r="8.828" cy="23.789" cx="335.448"/>
  </g>
  <g id="svg_34">
   <path id="svg_35" fill="#594759" d="m256,138.546c-9.75,0 -17.655,7.904 -17.655,17.655l0,35.31c0,6.518 3.573,12.148 8.828,15.207l0,90.724c0,4.875 3.948,8.828 8.828,8.828c4.879,0 8.828,-3.953 8.828,-8.828l0,-90.724c5.255,-3.058 8.828,-8.689 8.828,-15.207l0,-35.31c-0.002,-9.751 -7.907,-17.655 -17.657,-17.655z"/>
   <path id="svg_36" fill="#594759" d="m26.483,50.27l-20.011,0c2.499,5.686 5.425,11.463 8.341,17.655l11.67,0c4.879,0 8.828,-3.953 8.828,-8.828s-3.949,-8.827 -8.828,-8.827z"/>
   <path id="svg_37" fill="#594759" d="m52.966,94.408c0,-4.875 -3.948,-8.828 -8.828,-8.828l-22.217,0c1.827,5.432 3.479,11.156 4.562,17.655l17.655,0c4.879,0.001 8.828,-3.952 8.828,-8.827z"/>
   <path id="svg_38" fill="#594759" d="m52.966,129.719c0,-4.875 -3.948,-8.828 -8.828,-8.828l-14.018,0c1.709,6.866 3.561,12.71 5.448,17.655l8.57,0c4.879,0 8.828,-3.952 8.828,-8.827z"/>
   <circle id="svg_39" fill="#594759" r="8.828" cy="85.582" cx="141.33"/>
   <circle id="svg_40" fill="#594759" r="8.828" cy="85.582" cx="88.364"/>
   <circle id="svg_41" fill="#594759" r="8.828" cy="112.065" cx="114.759"/>
   <circle id="svg_42" fill="#594759" r="8.828" cy="112.065" cx="167.724"/>
   <circle id="svg_43" fill="#594759" r="8.828" cy="138.591" cx="141.286"/>
   <path id="svg_44" fill="#594759" d="m104.828,234.546c-12.162,-31.08 -7.785,-51.307 9.294,-68.8c-24.708,3.502 -52.329,19.996 -52.329,43.421c0,26.01 42.593,111.572 102.659,114.614c-10.731,-20.463 -43.767,-48.711 -59.624,-89.235z"/>
   <circle id="svg_45" fill="#594759" r="8.828" cy="200.34" cx="132.414"/>
   <circle id="svg_46" fill="#594759" r="8.828" cy="235.651" cx="150.157"/>
  </g>
  <g id="svg_47">
   <circle id="svg_48" fill="#FF783C" r="8.828" cy="204.015" cx="81.655"/>
   <circle id="svg_49" fill="#FF783C" r="7.54" cy="234.547" cx="88.276"/>
   <circle id="svg_50" fill="#FF783C" r="6.98" cy="261.758" cx="101.153"/>
   <circle id="svg_51" fill="#FF783C" r="6.613" cy="284.379" cx="118.069"/>
  </g>
  <g id="svg_52"/>
  <g id="svg_53"/>
  <g id="svg_54"/>
  <g id="svg_55"/>
  <g id="svg_56"/>
  <g id="svg_57"/>
  <g id="svg_58"/>
  <g id="svg_59"/>
  <g id="svg_60"/>
  <g id="svg_61"/>
  <g id="svg_62"/>
  <g id="svg_63"/>
  <g id="svg_64"/>
  <g id="svg_65"/>
  <g id="svg_66"/>
 </g>
</svg>