<svg width="512.001" height="409.001" xmlns="http://www.w3.org/2000/svg">

 <g>
  <title>background</title>
  <rect fill="none" id="canvas_background" height="411.001" width="514.001" y="-1" x="-1"/>
 </g>
 <g>
  <title>Layer 1</title>
  <path id="svg_1" fill="#E6DCD2" d="m273.655,160.86c0,0 111.324,35.534 114.758,61.793c4.921,37.633 -37.872,87.492 -53.332,116.193c-6.356,-4.131 -12.481,-7.859 -17.289,-10.262c0,0 -8.017,-40.32 -27.974,-63.192c-3.147,-3.607 -4.754,-8.268 -4.65,-13.053c0.3,-13.878 -1.565,-43.363 -20.341,-64.996l8.828,-26.483z"/>
  <path id="svg_2" fill="#CFC1B4" d="m291.438,166.943c1.298,92.516 32.347,130.821 37.389,134.422l-20.523,-3.747c-4.417,-11.068 -10.475,-23.044 -18.486,-32.226c-3.147,-3.607 -4.754,-8.268 -4.65,-13.053c0.3,-13.878 -1.565,-43.363 -20.341,-64.996l8.719,-26.159l1.089,-0.006c2.246,0.731 8.391,2.761 16.803,5.765z"/>
  <path id="svg_3" fill="#463246" d="m317.793,81.412c35.31,-35.31 88.275,-79.448 105.931,-79.448l17.386,0c5.026,0 9.058,4.178 8.821,9.197c-1.326,28.019 -9.011,113.231 -53.548,159.795c-4.482,4.686 -11.069,6.661 -17.348,5.046c-18.957,-4.874 -62.889,-15.144 -96.55,-15.144l0,-8.828c-0.003,-17.653 -0.003,-35.308 35.308,-70.618z"/>
  <g id="svg_4">
   <path id="svg_5" fill="#E6DCD2" d="m348.724,169.04c-17.615,-3.603 -38.512,-7.061 -57.409,-7.941c0.071,-14.463 7.124,-45.834 29.551,-67.232c3.364,-3.21 8.991,-1.252 9.685,3.346c3.063,20.314 8.509,45.686 18.173,71.827z"/>
   <path id="svg_6" fill="#E6DCD2" d="m345.651,75.97c-0.364,-3.682 0.907,-7.325 3.524,-9.941c24.761,-24.745 50.619,-46.41 61.263,-46.41l14.664,0c4.239,0 7.64,4.013 7.439,8.835c-1.043,25.113 -6.778,98.031 -38.049,144.021c-4.345,3.478 -9.977,4.937 -15.46,3.527c-2.674,-0.687 -5.978,-1.502 -9.546,-2.359c-15.584,-37.438 -21.56,-74.675 -23.835,-97.673z"/>
  </g>
  <path id="svg_7" fill="#463246" d="m305.387,290.726c0.498,0.046 0.984,-0.038 1.483,0.098c9.069,2.465 15.887,1.384 21.465,-3.388c19.661,-16.842 19.246,-72.63 17.037,-98.438c6.506,3.124 12.727,6.376 18.346,9.676c1.277,25.143 0.684,70.973 -17.471,95.111c32.184,-14.75 40.59,-71.02 37.924,-79.415c2.366,2.825 3.712,5.632 4.242,8.281c8.092,40.46 -13.241,55.405 -9.284,67.828c7.948,24.95 51.749,66.935 127.629,100.659c4.457,1.978 6.457,7.194 4.483,11.651c-1.465,3.288 -4.69,5.246 -8.077,5.246c-1.198,0 -2.414,-0.246 -3.577,-0.767c-41.721,-18.542 -74.203,-39.638 -97.255,-59.75c-8.019,-6.996 -20.665,-3.724 -24.334,6.265c-0.836,2.279 -1.569,4.681 -2.169,7.234c-1.341,5.701 -8.823,7.278 -12.427,2.661c-8.014,-10.268 -22.793,-26.069 -42.045,-29.913c-3.349,-0.669 -5.771,-3.509 -6.093,-6.909c-0.598,-6.295 -2.3,-16.898 -7,-29.204c-0.918,-2.292 -1.816,-4.583 -2.877,-6.926z"/>
  <path id="svg_8" fill="#FF413C" d="m402.33,347.517c-8.019,-6.996 -20.665,-3.724 -24.334,6.265c-0.836,2.279 -1.569,4.681 -2.169,7.234c-1.341,5.701 -8.823,7.278 -12.427,2.661c-8.014,-10.268 -22.793,-26.069 -42.044,-29.913c-3.349,-0.669 -5.771,-3.509 -6.093,-6.909c-0.092,-0.97 -0.215,-2.055 -0.366,-3.219c18.322,-5.112 53.219,-8.391 87.433,23.881z"/>
  <path id="svg_9" fill="#E6DCD2" d="m238.347,160.86c0,0 -111.324,35.534 -114.758,61.793c-4.921,37.633 37.872,87.492 53.332,116.193c6.356,-4.131 12.481,-7.859 17.289,-10.262c0,0 8.017,-40.32 27.975,-63.192c3.147,-3.607 4.754,-8.268 4.65,-13.053c-0.3,-13.878 1.565,-43.363 20.341,-64.996l-8.829,-26.483z"/>
  <path id="svg_10" fill="#CFC1B4" d="m220.564,166.943c-1.298,92.516 -32.347,130.821 -37.389,134.422l20.523,-3.747c4.417,-11.068 10.475,-23.044 18.486,-32.226c3.147,-3.607 4.754,-8.268 4.65,-13.053c-0.3,-13.878 1.565,-43.363 20.341,-64.996l-8.719,-26.159l-1.089,-0.006c-2.247,0.731 -8.392,2.761 -16.803,5.765z"/>
  <path id="svg_11" fill="#463246" d="m194.209,81.412c-35.31,-35.31 -88.275,-79.448 -105.931,-79.448l-17.385,0c-5.026,0 -9.058,4.178 -8.821,9.197c1.326,28.019 9.011,113.231 53.548,159.795c4.482,4.686 11.069,6.661 17.348,5.046c18.957,-4.874 62.889,-15.144 96.55,-15.144l0,-8.828c0.001,-17.653 0.001,-35.308 -35.309,-70.618z"/>
  <g id="svg_12">
   <path id="svg_13" fill="#E6DCD2" d="m163.276,169.04c17.615,-3.603 38.512,-7.061 57.409,-7.941c-0.071,-14.463 -7.124,-45.834 -29.551,-67.232c-3.364,-3.21 -8.991,-1.252 -9.685,3.346c-3.062,20.314 -8.509,45.686 -18.173,71.827z"/>
   <path id="svg_14" fill="#E6DCD2" d="m166.35,75.97c0.364,-3.682 -0.907,-7.325 -3.524,-9.941c-24.762,-24.745 -50.619,-46.41 -61.263,-46.41l-14.664,0c-4.239,0 -7.64,4.013 -7.439,8.835c1.043,25.113 6.778,98.031 38.049,144.021c4.345,3.478 9.977,4.937 15.46,3.527c2.674,-0.687 5.978,-1.502 9.546,-2.359c15.584,-37.438 21.56,-74.675 23.835,-97.673z"/>
  </g>
  <g id="svg_15">
   <path id="svg_16" fill="#6B5B6B" d="m247.174,112.308c-1.56,0 -3.078,-0.832 -3.871,-2.302l-52.965,-97.103c-1.173,-2.138 -0.38,-4.819 1.759,-5.987c2.13,-1.164 4.828,-0.38 5.983,1.763l52.965,97.103c1.173,2.138 0.38,4.819 -1.759,5.987c-0.673,0.367 -1.397,0.539 -2.112,0.539z"/>
   <path id="svg_17" fill="#6B5B6B" d="m264.829,112.308c-0.715,0 -1.44,-0.172 -2.112,-0.538c-2.138,-1.169 -2.931,-3.849 -1.759,-5.987l52.965,-97.103c1.155,-2.142 3.844,-2.926 5.983,-1.763c2.137,1.169 2.931,3.849 1.759,5.987l-52.965,97.103c-0.793,1.469 -2.31,2.301 -3.871,2.301z"/>
  </g>
  <path id="svg_18" fill="#463246" d="m256.002,275.618l0,0c-9.751,0 -17.655,-7.904 -17.655,-17.655l0,-141.241c0,-9.751 7.904,-17.655 17.655,-17.655l0,0c9.751,0 17.655,7.904 17.655,17.655l0,141.241c0,9.75 -7.905,17.655 -17.655,17.655z"/>
  <path id="svg_19" fill="#5A464B" d="m256.002,204.998l0,0c-14.626,0 -26.483,-11.856 -26.483,-26.483l0,-26.483c0,-14.626 11.857,-26.483 26.483,-26.483l0,0c14.626,0 26.483,11.856 26.483,26.483l0,26.483c0,14.626 -11.857,26.483 -26.483,26.483z"/>
  <path id="svg_20" fill="#463246" d="m206.614,290.726c-0.498,0.046 -0.984,-0.038 -1.483,0.098c-9.069,2.465 -15.888,1.384 -21.465,-3.388c-19.661,-16.842 -19.246,-72.63 -17.037,-98.438c-6.506,3.124 -12.727,6.376 -18.346,9.676c-1.277,25.143 -0.684,70.973 17.471,95.111c-32.184,-14.75 -40.59,-71.02 -37.924,-79.415c-2.366,2.825 -3.712,5.632 -4.242,8.281c-8.092,40.46 13.241,55.405 9.284,67.828c-7.948,24.95 -51.749,66.935 -127.629,100.659c-4.457,1.978 -6.457,7.194 -4.482,11.651c1.465,3.288 4.69,5.246 8.077,5.246c1.198,0 2.413,-0.246 3.577,-0.767c41.721,-18.542 74.203,-39.638 97.255,-59.75c8.019,-6.996 20.665,-3.724 24.334,6.265c0.836,2.279 1.569,4.681 2.169,7.234c1.341,5.701 8.823,7.278 12.427,2.661c8.014,-10.268 22.793,-26.069 42.045,-29.913c3.349,-0.669 5.771,-3.509 6.093,-6.909c0.598,-6.295 2.3,-16.898 7,-29.204c0.917,-2.292 1.816,-4.583 2.876,-6.926z"/>
  <path id="svg_21" fill="#FF413C" d="m109.672,347.517c8.019,-6.996 20.665,-3.724 24.334,6.265c0.836,2.279 1.569,4.681 2.169,7.234c1.341,5.701 8.823,7.278 12.427,2.661c8.014,-10.268 22.793,-26.069 42.044,-29.913c3.349,-0.669 5.771,-3.509 6.093,-6.909c0.092,-0.97 0.215,-2.055 0.366,-3.219c-18.323,-5.112 -53.22,-8.391 -87.433,23.881z"/>
  <g id="svg_22"/>
  <g id="svg_23"/>
  <g id="svg_24"/>
  <g id="svg_25"/>
  <g id="svg_26"/>
  <g id="svg_27"/>
  <g id="svg_28"/>
  <g id="svg_29"/>
  <g id="svg_30"/>
  <g id="svg_31"/>
  <g id="svg_32"/>
  <g id="svg_33"/>
  <g id="svg_34"/>
  <g id="svg_35"/>
  <g id="svg_36"/>
 </g>
</svg>