<svg xmlns="http://www.w3.org/2000/svg" xmlns:xlink="http://www.w3.org/1999/xlink"><symbol id="gmail" viewBox="0 0 512 512">
<g>
	<circle style="fill:#ECE5DD;" cx="256" cy="256" r="256"/>
	<circle style="fill:#ECE5DD;" cx="256" cy="256" r="256"/>
</g>
<path style="fill:#D9CBBD;" d="M512,256c0-71.351-29.201-135.873-76.29-182.298L289.391,189.217l-44.522,11.13L100.174,100.174
	L63.026,87.791c-4.944,5.667-9.635,11.559-14.07,17.648l320.2,380.238C453.781,443.905,512,356.758,512,256z"/>
<path style="fill:#AC2201;" d="M512,256c0-56.693-18.442-109.07-49.635-151.492L444.661,118.4v310.626
	C486.471,383.461,512,322.715,512,256z"/>
<path style="fill:#CD2900;" d="M416.127,56.273L262.325,172.605c-3.742,2.83-8.909,2.83-12.651,0L95.873,56.273
	c-17.717,14.222-33.499,30.752-46.895,49.135l200.549,157.351c3.8,2.982,9.145,2.982,12.945,0l200.549-157.351
	C449.626,87.024,433.844,70.496,416.127,56.273z"/>
<path style="fill:#AC2201;" d="M67.339,429.026V118.4l-17.704-13.892C18.442,146.93,0,199.307,0,256
	C0,322.715,25.529,383.461,67.339,429.026z"/>
<g>
</g>
<g>
</g>
<g>
</g>
<g>
</g>
<g>
</g>
<g>
</g>
<g>
</g>
<g>
</g>
<g>
</g>
<g>
</g>
<g>
</g>
<g>
</g>
<g>
</g>
<g>
</g>
<g>
</g>
</symbol><symbol id="telegram" viewBox="0 0 512 512">
<circle style="fill:#59AAE7;" cx="256" cy="256" r="256"/>
<path style="fill:#3D9AE3;" d="M256,0c-11.317,0-22.461,0.744-33.391,2.167C348.216,18.53,445.217,125.933,445.217,256
	s-97.002,237.47-222.609,253.833C233.539,511.256,244.683,512,256,512c141.385,0,256-114.616,256-256S397.385,0,256,0z"/>
<path style="fill:#FCFCFC;" d="M164.689,311.141L82.127,269.86c-2.263-1.132-2.285-4.353-0.038-5.516L395.75,102.105
	c2.304-1.192,4.964,0.811,4.456,3.355l-54.004,270.017c-0.385,1.927-2.446,3.011-4.253,2.237l-73.393-31.453
	c-0.879-0.377-1.884-0.326-2.721,0.139l-94.839,52.688c-2.062,1.145-4.597-0.345-4.597-2.705v-82.474
	C166.4,312.736,165.738,311.665,164.689,311.141z"/>
<path style="fill:#D8D7DA;" d="M200.31,338.967l-0.513-82.428c-0.003-0.528,0.27-1.018,0.72-1.293l133.899-81.798
	c1.518-0.927,3.106,1.083,1.852,2.345l-101.9,102.624c-0.112,0.114-0.207,0.244-0.278,0.387l-17.43,34.858l-13.509,25.988
	C202.426,341.045,200.32,340.538,200.31,338.967z"/>
<g>
</g>
<g>
</g>
<g>
</g>
<g>
</g>
<g>
</g>
<g>
</g>
<g>
</g>
<g>
</g>
<g>
</g>
<g>
</g>
<g>
</g>
<g>
</g>
<g>
</g>
<g>
</g>
<g>
</g>
</symbol></svg>