<svg width="512" height="316" xmlns="http://www.w3.org/2000/svg">

 <g>
  <title>background</title>
  <rect fill="none" id="canvas_background" height="318" width="514" y="-1" x="-1"/>
 </g>
 <g>
  <title>Layer 1</title>
  <path id="svg_1" fill="#463246" d="m264.828,200.176c0,0 52.966,114.759 97.103,114.759s97.103,-26.483 97.103,-97.103c0,-44.138 -52.966,-70.621 -52.966,-70.621l-141.24,0l0,52.965"/>
  <path id="svg_2" fill="#594759" d="m333.241,269.142c17.602,37.502 59.351,41.356 73.447,36.228c-14.386,6.538 -30.046,9.565 -44.757,9.565c-44.138,0 -97.103,-114.759 -97.103,-114.759l0,-12.508c24.275,12.508 43.034,27.405 68.413,81.474z"/>
  <path id="svg_3" fill="#FF413C" d="m361.931,147.211c26.763,21.41 42.88,58.138 44.472,76.788c0.669,7.833 -8.587,12.278 -14.603,7.219c-57.893,-48.696 -126.973,-48.696 -126.973,-48.696l0,-35.31l97.104,0l0,-0.001z"/>
  <path id="svg_4" fill="#C53C3C" d="m385.7,173.693l-120.872,0l0,-26.483l97.103,0c9.293,7.435 17.206,16.753 23.769,26.483z"/>
  <path id="svg_5" fill="#463246" d="m432.552,5.969c35.31,-8.827 79.448,-8.827 79.448,26.483c0,25.571 -18.518,78.92 -28.734,106.403c-3.854,10.369 -13.737,17.183 -24.799,17.183l-193.64,0l0,-26.483c0.001,0.001 86.48,-103.274 167.725,-123.586z"/>
  <g id="svg_6">
   <path id="svg_7" fill="#FF413C" d="m264.828,129.556c0,0 16.296,-19.449 41.365,-43.123c69.745,11.395 99.876,69.606 99.876,69.606l-141.241,0l0,-26.483z"/>
   <path id="svg_8" fill="#FF413C" d="m455.125,146.546c-15.77,-25.468 -54.593,-73.685 -125.486,-81.062c6.996,-5.897 14.362,-11.785 22.004,-17.464c8.17,-6.072 18.528,-8.296 28.489,-6.202c30.296,6.367 79.835,21.623 110.534,56.343c3.136,3.546 3.918,8.619 2.401,13.103c-3.523,10.417 -6.978,19.998 -9.801,27.592c-0.616,1.657 -1.434,3.186 -2.339,4.648l-6.827,7.403c-0.056,0.041 -0.113,0.082 -0.17,0.122c-6.152,4.42 -14.817,1.957 -18.805,-4.483z"/>
  </g>
  <path id="svg_9" fill="#463246" d="m247.172,200.176c0,0 -52.966,114.759 -97.103,114.759s-97.103,-26.483 -97.103,-97.103c0,-44.138 52.966,-70.621 52.966,-70.621l141.241,0l0,52.965"/>
  <path id="svg_10" fill="#594759" d="m178.759,269.142c-17.602,37.502 -59.351,41.356 -73.448,36.228c14.386,6.538 30.046,9.565 44.758,9.565c44.138,0 97.103,-114.759 97.103,-114.759l0,-12.508c-24.275,12.508 -43.034,27.405 -68.413,81.474z"/>
  <path id="svg_11" fill="#FF413C" d="m150.069,147.211c-26.763,21.41 -42.88,58.138 -44.472,76.788c-0.669,7.833 8.587,12.278 14.603,7.219c57.894,-48.696 126.973,-48.696 126.973,-48.696l0,-35.31l-97.104,0l0,-0.001z"/>
  <path id="svg_12" fill="#C53C3C" d="m126.298,173.693l120.874,0l0,-26.483l-97.103,0c-9.293,7.435 -17.206,16.753 -23.771,26.483z"/>
  <path id="svg_13" fill="#908490" d="m256,116.314c-2.155,0 -4,-1.56 -4.353,-3.69c-8.448,-50.711 -50.94,-85.212 -51.371,-85.551c-1.905,-1.526 -2.207,-4.301 -0.69,-6.207c1.535,-1.897 4.31,-2.202 6.207,-0.69c1.638,1.314 36.077,29.289 50.207,73.16c14.13,-43.871 48.569,-71.844 50.207,-73.16c1.913,-1.513 4.681,-1.224 6.198,0.69c1.526,1.901 1.224,4.676 -0.681,6.202c-0.431,0.345 -42.94,34.953 -51.371,85.556c-0.353,2.13 -2.198,3.69 -4.353,3.69z"/>
  <path id="svg_14" fill="#594759" d="m264.828,120.728l0,-17.655c0,-4.875 -3.948,-8.828 -8.828,-8.828c-4.879,0 -8.828,3.953 -8.828,8.828l0,17.655l17.656,0z"/>
  <path id="svg_15" fill="#463246" d="m79.448,5.969c-35.31,-8.827 -79.448,-8.827 -79.448,26.483c0,25.571 18.518,78.92 28.734,106.403c3.854,10.369 13.737,17.183 24.799,17.183l193.64,0l0,-26.483c-0.001,0.001 -86.48,-103.274 -167.725,-123.586z"/>
  <path id="svg_16" fill="#FF413C" d="m247.172,129.556c0,0 -16.296,-19.449 -41.365,-43.123c-69.745,11.395 -99.876,69.606 -99.876,69.606l141.241,0l0,-26.483z"/>
  <g id="svg_17">
   <path id="svg_18" fill="#463246" d="m256,209.004l0,0c-9.751,0 -17.655,-7.904 -17.655,-17.655l0,-61.793c0,-9.751 7.904,-17.655 17.655,-17.655l0,0c9.751,0 17.655,7.904 17.655,17.655l0,61.793c0,9.751 -7.904,17.655 -17.655,17.655z"/>
   <path id="svg_19" fill="#463246" d="m256,288.452c-4.879,0 -8.828,-3.953 -8.828,-8.828l0,-88.276c0,-4.875 3.948,-8.828 8.828,-8.828c4.879,0 8.828,3.953 8.828,8.828l0,88.276c0,4.876 -3.949,8.828 -8.828,8.828z"/>
  </g>
  <path id="svg_20" fill="#FF413C" d="m56.875,146.546c15.77,-25.468 54.593,-73.685 125.486,-81.062c-6.996,-5.897 -14.362,-11.785 -22.004,-17.464c-8.17,-6.072 -18.528,-8.296 -28.489,-6.202c-30.296,6.367 -79.834,21.623 -110.534,56.343c-3.136,3.546 -3.918,8.619 -2.401,13.103c3.523,10.417 6.978,19.998 9.801,27.592c0.616,1.657 1.434,3.186 2.339,4.648l6.827,7.403c0.056,0.041 0.113,0.082 0.17,0.122c6.151,4.42 14.817,1.957 18.805,-4.483z"/>
  <g id="svg_21"/>
  <g id="svg_22"/>
  <g id="svg_23"/>
  <g id="svg_24"/>
  <g id="svg_25"/>
  <g id="svg_26"/>
  <g id="svg_27"/>
  <g id="svg_28"/>
  <g id="svg_29"/>
  <g id="svg_30"/>
  <g id="svg_31"/>
  <g id="svg_32"/>
  <g id="svg_33"/>
  <g id="svg_34"/>
  <g id="svg_35"/>
 </g>
</svg>