<svg width="512" height="370" xmlns="http://www.w3.org/2000/svg">

 <g>
  <title>background</title>
  <rect fill="none" id="canvas_background" height="372" width="514" y="-1" x="-1"/>
 </g>
 <g>
  <title>Layer 1</title>
  <path id="svg_1" fill="#E6DCD2" d="m384.572,182.589c17.103,6.345 92.118,31.156 92.118,101.776s-60.832,94.481 -105.931,79.448c-52.965,-17.655 -114.758,-150.068 -114.758,-150.068l0,-44.138l128.571,12.982z"/>
  <path id="svg_2" fill="#FFC864" d="m355.774,356.08c-48.964,-33.463 -99.772,-142.334 -99.772,-142.334l0,-27.852l11.086,1.395c0,0 118.385,0.71 133.097,113.261c5.219,39.925 -15.523,53.957 -44.411,55.53z"/>
  <path id="svg_3" fill="#8F664D" d="m441.484,289.472c-25.45,-11.972 -39.739,-29.971 -53.431,-47.49c-23.207,-29.68 -47.147,-60.388 -120.965,-54.693l-9.63,22.745c49.44,49.815 136.757,69.625 140.447,70.444c0.055,0.012 0.108,0.007 0.163,0.018c9.795,9.54 21.718,18.396 37.083,25.455c3.132,-4.754 5.199,-10.392 6.333,-16.479zm-64.741,-33.31c-26.681,-8.548 -69.108,-25.205 -99.356,-51.729c57.08,-2.066 75.638,21.404 96.752,48.425c0.85,1.086 1.74,2.203 2.604,3.304z"/>
  <g id="svg_4">
   <path id="svg_5" fill="#695046" d="m406.069,319.676c39.724,1.655 41.563,-45.609 31.264,-72.46c-7.513,-19.588 -5.224,-29.39 2.19,-35.808c19.861,15.812 37.166,39.069 37.166,72.957c0,70.62 -60.832,94.481 -105.931,79.448c-8.814,-2.938 -17.871,-9.101 -26.85,-17.257c-0.735,-18.421 17.483,-28.742 62.161,-26.88z"/>
   <path id="svg_6" fill="#695046" d="m256.932,183.314c3.706,-7.41 92.086,-181.43 210.93,-181.43c21.319,0 44.138,14.189 44.138,35.31c0,17.487 -14.603,149.68 -69.173,158.776c-5.474,0.914 -11.25,1.306 -17.259,1.306c-18.922,0 -40.052,-3.892 -60.646,-7.685c-37.345,-6.879 -75.939,-13.983 -93.853,3.914c-3.06,3.064 -7.905,3.461 -11.405,0.918c-3.507,-2.531 -4.671,-7.234 -2.732,-11.109z"/>
  </g>
  <path id="svg_7" fill="#E6DCD2" d="m282.484,176.253c29.264,-50.649 100.606,-156.715 184.847,-156.715c13.885,0 27.013,9.15 27.013,18.823c0,34 -20.296,144.573 -55.504,150.708c-20.075,3.488 -47.098,-1.714 -73.25,-6.751c-29.211,-5.628 -59.091,-11.4 -83.106,-6.065z"/>
  <path id="svg_8" fill="#8F664D" d="m368.371,83.298c-8.066,-1.587 -17.368,1.949 -27.695,10.411c8.581,-9.826 17.767,-19.364 27.479,-28.16c1.229,0.122 2.464,0.194 3.681,0.438c2.936,0.587 5.657,1.513 8.189,2.663c46.829,-29.348 90.177,-37.304 110.277,-39.467c2.477,2.797 4.042,5.941 4.042,9.178c0,2.377 -0.11,5.162 -0.307,8.226c-16.37,1.632 -55.684,8.077 -98.807,33.536c6.517,7.262 9.775,14.58 10.103,15.344c38.778,-9.498 69.074,-7.912 82.834,-6.316c-1.11,5.715 -2.36,11.56 -3.757,17.432c-18.134,-1.745 -64.881,-2.844 -120.937,22.26c50.345,0.865 95.838,10.131 110.446,13.404c-2.141,5.876 -4.445,11.449 -6.898,16.587c-20.837,-4.435 -81.488,-15.781 -138.466,-11.4c-12.328,7.682 -24.884,16.768 -37.491,27.426c-2.927,0.338 -5.803,0.774 -8.584,1.391c5.44,-9.415 12.338,-20.747 20.498,-32.953c29.912,-21.304 58.96,-34.776 85.043,-42.993c-2.443,-4.491 -9.127,-14.902 -19.65,-17.007z"/>
  <g id="svg_9">
   <ellipse id="svg_10" fill="#FF6E3C" ry="11.402" rx="16.919" cy="365.11794" cx="322.40094" transform="matrix(0.7071,0.7071,-0.7071,0.7071,402.8112,-141.8267) "/>
   <ellipse id="svg_11" fill="#FF6E3C" ry="9.754" rx="14.477" cy="351.04694" cx="388.88594" transform="matrix(0.7071,0.7071,-0.7071,0.7071,412.3348,-192.9603) "/>
   <ellipse id="svg_12" fill="#FF6E3C" ry="8.637" rx="12.815" cy="329.86894" cx="404.12094" transform="matrix(0.7071,0.7071,-0.7071,0.7071,401.822,-209.9362) "/>
   <ellipse id="svg_13" fill="#FF6E3C" ry="7.757" rx="11.509" cy="304.39594" cx="408.99694" transform="matrix(0.7071,0.7071,-0.7071,0.7071,385.2381,-220.8447) "/>
   <ellipse id="svg_14" fill="#FF6E3C" ry="7.171" rx="10.64" cy="279.01194" cx="406.41594" transform="matrix(0.7071,0.7071,-0.7071,0.7071,366.533,-226.4543) "/>
   <ellipse id="svg_15" fill="#FF6E3C" ry="5.731" rx="8.504" cy="255.69894" cx="396.60694" transform="matrix(0.7071,0.7071,-0.7071,0.7071,347.1747,-226.3463) "/>
   <ellipse id="svg_16" fill="#FF6E3C" ry="13.167" rx="19.538" cy="362.43494" cx="359.62394" transform="matrix(0.7071,0.7071,-0.7071,0.7071,411.8167,-168.9332) "/>
  </g>
  <path id="svg_17" fill="#E6DCD2" d="m127.428,182.589c-17.103,6.345 -92.118,31.157 -92.118,101.777s60.832,94.481 105.931,79.448c52.965,-17.655 114.758,-150.068 114.758,-150.068l0,-44.138l-128.571,12.981z"/>
  <path id="svg_18" fill="#FFC864" d="m156.227,356.08c48.963,-33.463 99.772,-142.334 99.772,-142.334l0,-27.852l-11.086,1.395c0,0 -118.385,0.71 -133.097,113.261c-5.22,39.925 15.522,53.957 44.411,55.53z"/>
  <path id="svg_19" fill="#8F664D" d="m76.848,305.95c15.365,-7.059 27.287,-15.915 37.083,-25.455c0.055,-0.011 0.108,-0.005 0.163,-0.018c3.69,-0.819 91.009,-20.629 140.447,-70.444l-9.63,-22.745c-73.818,-5.694 -97.758,25.013 -120.965,54.693c-13.693,17.519 -27.981,35.518 -53.431,47.49c1.136,6.088 3.202,11.726 6.333,16.479zm61.013,-53.093c21.114,-27.02 39.672,-50.489 96.752,-48.425c-30.249,26.525 -72.675,43.181 -99.356,51.729c0.865,-1.1 1.754,-2.217 2.604,-3.304z"/>
  <g id="svg_20">
   <path id="svg_21" fill="#695046" d="m105.931,319.676c-39.724,1.655 -41.563,-45.609 -31.264,-72.46c7.513,-19.588 5.224,-29.39 -2.19,-35.808c-19.862,15.812 -37.167,39.068 -37.167,72.958c0,70.62 60.832,94.481 105.931,79.448c8.814,-2.938 17.871,-9.101 26.85,-17.257c0.736,-18.422 -17.481,-28.743 -62.16,-26.881z"/>
   <path id="svg_22" fill="#695046" d="m255.068,183.314c-3.706,-7.409 -92.086,-181.429 -210.93,-181.429c-21.319,-0.001 -44.138,14.189 -44.138,35.31c0,17.486 14.603,149.68 69.172,158.774c5.474,0.914 11.25,1.306 17.259,1.306c18.922,0 40.052,-3.892 60.646,-7.685c37.345,-6.879 75.939,-13.983 93.853,3.914c3.06,3.064 7.905,3.461 11.405,0.918c3.508,-2.53 4.672,-7.233 2.733,-11.108z"/>
  </g>
  <g id="svg_23">
   <path id="svg_24" fill="#E6DCD2" d="m146.409,182.319c-26.152,5.036 -53.174,10.239 -73.25,6.751c-35.209,-6.135 -55.504,-116.708 -55.504,-150.709c0,-9.673 13.129,-18.823 27.013,-18.823c84.241,0 155.583,106.064 184.848,156.714c-24.015,-5.334 -53.895,0.438 -83.107,6.067z"/>
   <path id="svg_25" fill="#E6DCD2" d="m247.163,165.194c-2.138,0 -4.018,-1.565 -4.353,-3.746c-0.086,-0.569 -9.112,-57.323 -43.336,-103.986c-1.44,-1.965 -1.017,-4.728 0.948,-6.173c1.949,-1.444 4.733,-1.017 6.173,0.948c35.543,48.47 44.577,105.474 44.94,107.875c0.371,2.41 -1.284,4.66 -3.699,5.031c-0.225,0.033 -0.449,0.051 -0.673,0.051z"/>
   <path id="svg_26" fill="#E6DCD2" d="m264.835,165.194c-0.224,0 -0.448,-0.018 -0.672,-0.052c-2.414,-0.366 -4.069,-2.621 -3.699,-5.031c0.362,-2.401 9.397,-59.405 44.94,-107.875c1.457,-1.97 4.224,-2.37 6.173,-0.948c1.965,1.444 2.388,4.207 0.948,6.173c-34.276,46.736 -43.249,103.418 -43.336,103.986c-0.337,2.182 -2.216,3.747 -4.354,3.747z"/>
   <path id="svg_27" fill="#E6DCD2" d="m255.999,319.676c-4.879,0 -8.828,-3.953 -8.828,-8.828l0,-97.103c0,-4.875 3.948,-8.828 8.828,-8.828c4.879,0 8.828,3.953 8.828,8.828l0,97.103c-0.001,4.876 -3.949,8.828 -8.828,8.828z"/>
  </g>
  <path id="svg_28" fill="#CFC1B4" d="m255.999,222.573l0,0c-9.751,0 -17.655,-7.904 -17.655,-17.655l0,-35.31c0,-9.751 7.904,-17.655 17.655,-17.655l0,0c9.751,0 17.655,7.904 17.655,17.655l0,35.31c0,9.75 -7.904,17.655 -17.655,17.655z"/>
  <path id="svg_29" fill="#8F664D" d="m143.629,83.298c8.066,-1.587 17.368,1.949 27.695,10.411c-8.581,-9.826 -17.767,-19.364 -27.479,-28.16c-1.229,0.122 -2.464,0.194 -3.681,0.438c-2.936,0.587 -5.657,1.513 -8.189,2.663c-46.83,-29.348 -90.177,-37.304 -110.278,-39.467c-2.477,2.797 -4.042,5.941 -4.042,9.178c0,2.377 0.11,5.162 0.307,8.226c16.37,1.632 55.684,8.077 98.807,33.536c-6.517,7.262 -9.775,14.58 -10.103,15.344c-38.778,-9.498 -69.074,-7.912 -82.834,-6.316c1.11,5.715 2.36,11.56 3.757,17.432c18.134,-1.745 64.881,-2.844 120.937,22.26c-50.345,0.865 -95.838,10.131 -110.446,13.404c2.141,5.876 4.445,11.449 6.898,16.587c20.837,-4.435 81.488,-15.781 138.466,-11.4c12.328,7.682 24.884,16.768 37.491,27.426c2.927,0.338 5.803,0.774 8.584,1.391c-5.44,-9.415 -12.338,-20.747 -20.498,-32.953c-29.912,-21.304 -58.96,-34.776 -85.043,-42.993c2.444,-4.491 9.128,-14.902 19.651,-17.007z"/>
  <g id="svg_30">
   <ellipse id="svg_31" fill="#FF6E3C" ry="11.402" rx="16.919" cy="365.10394" cx="189.61406" transform="matrix(0.7071,-0.7071,0.7071,0.7071,-252.8356,220.2179) "/>
   <ellipse id="svg_32" fill="#FF6E3C" ry="9.754" rx="14.477" cy="351.03494" cx="123.12306" transform="matrix(0.7071,-0.7071,0.7071,0.7071,-262.3626,169.0816) "/>
   <ellipse id="svg_33" fill="#FF6E3C" ry="8.637" rx="12.815" cy="329.87094" cx="107.88106" transform="matrix(0.7071,-0.7071,0.7071,0.7071,-251.8614,152.1051) "/>
   <ellipse id="svg_34" fill="#FF6E3C" ry="7.757" rx="11.509" cy="304.39094" cx="103.01206" transform="matrix(0.7071,-0.7071,0.7071,0.7071,-235.2702,141.1991) "/>
   <ellipse id="svg_35" fill="#FF6E3C" ry="7.171" rx="10.64" cy="279.01194" cx="105.58606" transform="matrix(0.7071,-0.7071,0.7071,0.7071,-216.5711,135.5856) "/>
   <ellipse id="svg_36" fill="#FF6E3C" ry="5.731" rx="8.504" cy="255.70794" cx="115.39206" transform="matrix(0.7071,-0.7071,0.7071,0.7071,-197.2201,135.694) "/>
   <ellipse id="svg_37" fill="#FF6E3C" ry="13.167" rx="19.538" cy="362.42494" cx="152.37606" transform="matrix(0.7071,-0.7071,0.7071,0.7071,-261.8479,193.1026) "/>
  </g>
  <g id="svg_38"/>
  <g id="svg_39"/>
  <g id="svg_40"/>
  <g id="svg_41"/>
  <g id="svg_42"/>
  <g id="svg_43"/>
  <g id="svg_44"/>
  <g id="svg_45"/>
  <g id="svg_46"/>
  <g id="svg_47"/>
  <g id="svg_48"/>
  <g id="svg_49"/>
  <g id="svg_50"/>
  <g id="svg_51"/>
  <g id="svg_52"/>
 </g>
</svg>