<svg width="512" height="352" xmlns="http://www.w3.org/2000/svg">

 <g>
  <title>background</title>
  <rect fill="none" id="canvas_background" height="354" width="514" y="-1" x="-1"/>
 </g>
 <g>
  <title>Layer 1</title>
  <path id="svg_1" fill="#695046" d="m247.172,215.678c0,0 -32.242,120.593 -61.793,132.414c-44.138,17.654 -150.069,-61.794 -141.241,-105.932s69.15,-70.621 69.15,-70.621l133.885,-17.655l0,61.794l-0.001,0z"/>
  <g id="svg_2">
   <path id="svg_3" fill="#58413C" d="m68.713,294.99c21.847,23.361 54.247,44.659 81.89,52.452c14.065,-36.867 44.711,-104.407 96.569,-158.699l0,-34.859l-125.536,16.554c-31.77,37.446 -57.067,81.614 -52.923,124.552z"/>
   <path id="svg_4" fill="#58413C" d="m70.621,3.815c-35.69,-7.138 -70.621,0 -70.621,52.966c0,35.705 11.028,77.472 18.759,104.828c4.781,16.919 26.801,25.155 39.724,23.54l188.69,-22.436l0,-26.483c-26.483,-35.311 -132.414,-123.587 -176.552,-132.415z"/>
  </g>
  <path id="svg_5" fill="#FF8C41" d="m76.959,149.123c14.397,-11.951 48.147,-37.671 97.393,-59.133c8.321,-3.626 9.974,-14.774 2.932,-20.5c-5.391,-4.383 -10.882,-8.73 -16.408,-12.98c-21.707,-16.69 -51.946,-16.291 -73.497,0.599c-25.19,19.743 -50.882,45.473 -56.356,71.33c-2.093,9.885 2.244,19.887 11.098,24.755c12.789,7.032 25.562,3.629 34.838,-4.071z"/>
  <path id="svg_6" fill="#73C8EB" d="m185.379,233.333c-8.828,-44.138 -97.103,-9.702 -97.103,35.31c0,0.138 0,0.277 0.001,0.417c0.199,34.01 22.573,64.41 54.59,75.885c7.244,2.596 14.271,4.38 20.828,5.162l4.03,-2.015c-0.001,-0.001 26.482,-70.621 17.654,-114.759z"/>
  <path id="svg_7" fill="#618CA9" d="m187.04,259.41c0.354,-9.174 -0.06,-18.068 -1.661,-26.078c-8.828,-44.138 -97.103,-9.702 -97.103,35.31c16.224,-16.223 69.647,-39.744 98.764,-9.232z"/>
  <path id="svg_8" fill="#695046" d="m264.828,215.678c0,0 32.242,120.593 61.793,132.414c44.138,17.655 150.069,-61.793 141.241,-105.931c-8.828,-44.138 -69.15,-70.621 -69.15,-70.621l-133.885,-17.655l0,61.793l0.001,0z"/>
  <g id="svg_9">
   <path id="svg_10" fill="#58413C" d="m443.286,294.99c-21.847,23.361 -54.247,44.659 -81.89,52.452c-14.065,-36.867 -44.711,-104.407 -96.569,-158.699l0,-34.859l125.536,16.554c31.771,37.446 57.068,81.614 52.923,124.552z"/>
   <path id="svg_11" fill="#58413C" d="m441.379,3.815c35.69,-7.138 70.621,0 70.621,52.966c0,35.705 -11.028,77.472 -18.759,104.828c-4.781,16.919 -26.801,25.155 -39.724,23.54l-188.69,-22.436l0,-26.483c26.483,-35.311 132.414,-123.587 176.552,-132.415z"/>
  </g>
  <path id="svg_12" fill="#FF8C41" d="m435.041,149.123c-14.397,-11.951 -48.147,-37.671 -97.393,-59.133c-8.321,-3.626 -9.974,-14.774 -2.931,-20.5c5.391,-4.383 10.882,-8.73 16.408,-12.98c21.707,-16.69 51.946,-16.291 73.497,0.599c25.19,19.743 50.882,45.473 56.356,71.33c2.093,9.885 -2.244,19.887 -11.099,24.755c-12.79,7.032 -25.562,3.629 -34.838,-4.071z"/>
  <path id="svg_13" fill="#73C8EB" d="m326.621,233.333c8.828,-44.138 97.103,-9.702 97.103,35.31c0,0.138 0,0.277 -0.001,0.417c-0.199,34.01 -22.573,64.41 -54.59,75.885c-7.244,2.596 -14.271,4.38 -20.828,5.162l-4.03,-2.016c0.001,0 -26.482,-70.62 -17.654,-114.758z"/>
  <path id="svg_14" fill="#618CA9" d="m324.96,259.41c-0.354,-9.174 0.06,-18.068 1.661,-26.078c8.828,-44.138 97.103,-9.702 97.103,35.31c-16.224,-16.223 -69.647,-39.744 -98.764,-9.232z"/>
  <path id="svg_15" fill="#908490" d="m256,114.16c-1.345,0 -2.612,-0.608 -3.448,-1.655c-35.656,-44.569 -44.69,-105.495 -45.06,-108.065c-0.345,-2.414 1.336,-4.647 3.742,-4.991c2.354,-0.401 4.647,1.319 5,3.742c0.086,0.586 8.483,57.043 39.767,99.319c31.285,-42.275 39.681,-98.733 39.767,-99.319c0.353,-2.422 2.595,-4.142 5,-3.742c2.406,0.345 4.086,2.578 3.742,4.991c-0.371,2.569 -9.405,63.496 -45.06,108.065c-0.838,1.047 -2.105,1.655 -3.45,1.655z"/>
  <path id="svg_16" fill="#5A464B" d="m256,312.781c-4.879,0 -8.828,-3.953 -8.828,-8.828l0,-194.207c0,-4.875 3.948,-8.828 8.828,-8.828c4.879,0 8.828,3.953 8.828,8.828l0,194.207c0,4.875 -3.949,8.828 -8.828,8.828z"/>
  <path id="svg_17" fill="#463246" d="m256,233.333l0,0c-9.751,0 -17.655,-7.904 -17.655,-17.655l0,-79.448c0,-9.751 7.904,-17.655 17.655,-17.655l0,0c9.751,0 17.655,7.904 17.655,17.655l0,79.448c0,9.751 -7.905,17.655 -17.655,17.655z"/>
  <g id="svg_18">
   <path id="svg_19" fill="#618CA9" d="m150.155,303.953c-4.879,0 -8.871,-3.953 -8.871,-8.828s3.905,-8.828 8.785,-8.828l0.086,0c4.879,0 8.828,3.953 8.828,8.828s-3.949,8.828 -8.828,8.828z"/>
   <path id="svg_20" fill="#618CA9" d="m361.931,303.953l-0.086,0c-4.879,0 -8.828,-3.953 -8.828,-8.828s3.948,-8.828 8.828,-8.828c4.879,0 8.871,3.953 8.871,8.828s-3.906,8.828 -8.785,8.828z"/>
  </g>
  <g id="svg_21"/>
  <g id="svg_22"/>
  <g id="svg_23"/>
  <g id="svg_24"/>
  <g id="svg_25"/>
  <g id="svg_26"/>
  <g id="svg_27"/>
  <g id="svg_28"/>
  <g id="svg_29"/>
  <g id="svg_30"/>
  <g id="svg_31"/>
  <g id="svg_32"/>
  <g id="svg_33"/>
  <g id="svg_34"/>
  <g id="svg_35"/>
 </g>
</svg>