<svg width="512" height="360" xmlns="http://www.w3.org/2000/svg">

 <g>
  <title>background</title>
  <rect fill="none" id="canvas_background" height="362" width="514" y="-1" x="-1"/>
 </g>
 <g>
  <title>Layer 1</title>
  <path id="svg_1" fill="#694B50" d="m388.414,186.734c8.828,0 97.103,26.483 79.448,70.621c0,0 6.069,33.655 -17.655,44.138c0,0 1.655,41.379 -35.31,44.138c0,0 -52.966,35.31 -79.448,-8.828c-16.375,-27.293 -70.621,-123.586 -70.621,-123.586l0,-26.483l123.586,0z"/>
  <path id="svg_2" fill="#5A464B" d="m450.207,301.493c0,0 1.655,41.379 -35.31,44.138c0,0 -17.767,11.762 -37.856,13.164l-112.213,-172.061l52.966,0l133.315,114.27c-0.315,0.153 -0.577,0.344 -0.902,0.489z"/>
  <path id="svg_3" fill="#825C5A" d="m450.207,10.183c26.483,-17.656 61.793,-8.828 61.793,17.655c0,20.359 -26.084,103.318 -38.148,140.599c-3.537,10.93 -13.699,18.297 -25.186,18.297l-192.666,0l0,-17.655c0,0 177.783,-147.947 194.207,-158.896z"/>
  <path id="svg_4" fill="#694B50" d="m448.665,186.734l-192.665,0l0,-13.375c57.687,-35.989 168.388,-103.756 194.207,-110.211c34.635,-8.659 26.797,76.081 9.823,120.979c-3.479,1.654 -7.329,2.607 -11.365,2.607z"/>
  <path id="svg_5" fill="#E6DCD2" d="m372.34,72.825c9.524,-7.828 18.776,-15.409 27.428,-22.473c15.127,3.968 53.664,23.798 20.733,111.565c-1.617,4.308 -5.806,7.161 -10.408,7.161l-35.114,0c-5.921,0 -9.721,-6.271 -7.092,-11.577c29.978,-60.485 16.841,-73.274 4.453,-84.676z"/>
  <path id="svg_6" fill="#FF9B46" d="m442.994,15.571c3.336,-2.589 5.865,-4.489 7.213,-5.388c26.483,-17.656 61.793,-8.828 61.793,17.655c0,14.106 -12.522,58.257 -24.227,96.455c-39.126,-7.431 -10.262,-83.481 -44.779,-108.722z"/>
  <path id="svg_7" fill="#E6DCD2" d="m387.416,196.906c5.544,0.41 9.852,5.017 9.824,10.577c-0.132,26.891 -4.57,67.425 -47.842,116.267c-1.967,2.221 -5.528,2.123 -7.389,-0.19l-1.987,-2.471c-7.667,-9.528 -9,-22.781 -3.181,-33.538c20.472,-37.853 21.684,-66.477 20.983,-84.556c-0.157,-4.036 3.081,-7.342 7.117,-7.202c6.33,0.219 15.452,0.592 22.475,1.113z"/>
  <g id="svg_8">
   <path id="svg_9" fill="#D8CCC0" d="m427.174,72.871c8.194,16.217 10.46,43.386 -6.671,89.046c-1.617,4.308 -5.806,7.162 -10.408,7.162l-35.115,0c-5.921,0 -9.721,-6.271 -7.092,-11.577c15.644,-31.566 19.492,-50.079 17.886,-62.247c15.598,-8.858 29.9,-16.666 41.4,-22.384z"/>
   <path id="svg_10" fill="#D8CCC0" d="m352.103,320.556l-17.62,-27.017c0.588,-2.046 1.319,-4.065 2.358,-5.987c14.722,-27.222 19.422,-49.583 20.674,-66.77l34.205,29.319c-5.674,20.447 -17.122,44.229 -39.617,70.455z"/>
  </g>
  <path id="svg_11" fill="#694B50" d="m123.586,186.734c-8.828,0 -97.103,26.483 -79.448,70.621c0,0 -6.069,33.655 17.655,44.138c0,0 -1.655,41.379 35.31,44.138c0,0 52.966,35.31 79.448,-8.828c16.375,-27.293 70.621,-123.586 70.621,-123.586l0,-26.483l-123.586,0z"/>
  <path id="svg_12" fill="#5A464B" d="m61.793,301.493c0,0 -1.655,41.379 35.31,44.138c0,0 17.767,11.762 37.856,13.164l112.213,-172.061l-52.966,0l-133.314,114.27c0.314,0.153 0.576,0.344 0.901,0.489z"/>
  <path id="svg_13" fill="#825C5A" d="m61.793,10.183c-26.483,-17.656 -61.793,-8.828 -61.793,17.655c0,20.359 26.084,103.318 38.148,140.599c3.537,10.93 13.699,18.297 25.186,18.297l192.666,0l0,-17.655c0,0 -177.783,-147.947 -194.207,-158.896z"/>
  <path id="svg_14" fill="#694B50" d="m63.335,186.734l192.665,0l0,-13.375c-57.687,-35.989 -168.388,-103.756 -194.207,-110.211c-34.635,-8.659 -26.797,76.081 -9.823,120.979c3.478,1.654 7.329,2.607 11.365,2.607z"/>
  <path id="svg_15" fill="#E6DCD2" d="m139.66,72.825c-9.524,-7.828 -18.776,-15.409 -27.428,-22.473c-15.128,3.968 -53.664,23.797 -20.734,111.564c1.617,4.308 5.806,7.161 10.408,7.161l35.114,0c5.921,0 9.721,-6.271 7.092,-11.577c-29.977,-60.484 -16.84,-73.273 -4.452,-84.675z"/>
  <path id="svg_16" fill="#FF9B46" d="m69.006,15.571c-3.336,-2.589 -5.865,-4.489 -7.213,-5.388c-26.483,-17.656 -61.793,-8.828 -61.793,17.655c0,14.106 12.522,58.257 24.227,96.455c39.126,-7.431 10.262,-83.481 44.779,-108.722z"/>
  <g id="svg_17">
   <path id="svg_18" fill="#8C6E69" d="m247.172,147.01c-1.19,0 -2.379,-0.483 -3.25,-1.431c-35.647,-38.879 -53.25,-105 -53.983,-107.793c-0.62,-2.362 0.793,-4.776 3.147,-5.388c2.379,-0.655 4.776,0.793 5.388,3.147c0.172,0.664 17.811,66.827 51.948,104.068c1.646,1.793 1.526,4.586 -0.267,6.232c-0.845,0.786 -1.913,1.165 -2.983,1.165z"/>
   <path id="svg_19" fill="#8C6E69" d="m264.828,147.01c-1.069,0 -2.138,-0.38 -2.983,-1.164c-1.793,-1.646 -1.913,-4.439 -0.267,-6.232c34.137,-37.241 51.776,-103.405 51.948,-104.068c0.612,-2.354 3,-3.801 5.388,-3.147c2.354,0.612 3.767,3.026 3.147,5.388c-0.733,2.793 -18.336,68.914 -53.983,107.793c-0.871,0.947 -2.061,1.43 -3.25,1.43z"/>
  </g>
  <path id="svg_20" fill="#5A464B" d="m256,301.493c-4.879,0 -8.828,-3.948 -8.828,-8.828l0,-79.448c0,-4.879 3.948,-8.828 8.828,-8.828c4.879,0 8.828,3.948 8.828,8.828l0,79.448c0,4.88 -3.949,8.828 -8.828,8.828z"/>
  <path id="svg_21" fill="#463246" d="m267.566,164.665c3.702,-3.236 6.089,-7.938 6.089,-13.241c0,-9.751 -7.905,-17.655 -17.655,-17.655s-17.655,7.904 -17.655,17.655c0,5.303 2.387,10.005 6.089,13.241c-3.702,3.236 -6.089,7.937 -6.089,13.241l0,35.31c0,9.75 7.905,17.655 17.655,17.655s17.655,-7.905 17.655,-17.655l0,-35.31c0,-5.304 -2.387,-10.005 -6.089,-13.241z"/>
  <path id="svg_22" fill="#E6DCD2" d="m124.583,196.906c-5.544,0.41 -9.852,5.017 -9.824,10.577c0.132,26.891 4.57,67.425 47.842,116.267c1.967,2.221 5.528,2.123 7.389,-0.19l1.987,-2.471c7.667,-9.528 9,-22.781 3.181,-33.538c-20.472,-37.853 -21.684,-66.477 -20.983,-84.556c0.157,-4.036 -3.081,-7.342 -7.117,-7.202c-6.329,0.219 -15.452,0.592 -22.475,1.113z"/>
  <g id="svg_23">
   <path id="svg_24" fill="#D8CCC0" d="m84.826,72.871c-8.194,16.217 -10.46,43.386 6.671,89.046c1.617,4.308 5.806,7.162 10.408,7.162l35.114,0c5.921,0 9.721,-6.271 7.092,-11.577c-15.644,-31.566 -19.492,-50.079 -17.886,-62.247c-15.597,-8.858 -29.899,-16.666 -41.399,-22.384z"/>
   <path id="svg_25" fill="#D8CCC0" d="m159.897,320.556l17.62,-27.017c-0.588,-2.046 -1.319,-4.065 -2.358,-5.987c-14.722,-27.222 -19.422,-49.583 -20.674,-66.77l-34.205,29.319c5.673,20.447 17.122,44.229 39.617,70.455z"/>
  </g>
  <g id="svg_26"/>
  <g id="svg_27"/>
  <g id="svg_28"/>
  <g id="svg_29"/>
  <g id="svg_30"/>
  <g id="svg_31"/>
  <g id="svg_32"/>
  <g id="svg_33"/>
  <g id="svg_34"/>
  <g id="svg_35"/>
  <g id="svg_36"/>
  <g id="svg_37"/>
  <g id="svg_38"/>
  <g id="svg_39"/>
  <g id="svg_40"/>
 </g>
</svg>