<svg width="511.999" height="360" xmlns="http://www.w3.org/2000/svg">

 <g>
  <title>background</title>
  <rect fill="none" id="canvas_background" height="362" width="513.999" y="-1" x="-1"/>
 </g>
 <g>
  <title>Layer 1</title>
  <path id="svg_1" fill="#FFD26E" d="m406.069,163.312l-150.069,0l0,44.138c0,0 70.621,141.241 88.276,150.069c17.655,8.828 114.759,-33.137 114.759,-105.931c-0.001,-44.139 -52.966,-88.276 -52.966,-88.276z"/>
  <path id="svg_2" fill="#FFC355" d="m421.634,253.9c-44.285,-50.383 -123.092,-70.36 -165.634,-77.762c0,-5.289 0,-12.826 0,-12.826l150.069,0c0,0 52.966,44.138 52.966,88.276c0,14.861 -4.092,28.412 -10.684,40.533c-7.261,-13.22 -16.031,-26.062 -26.717,-38.221z"/>
  <path id="svg_3" fill="#463246" d="m489.921,1.32c15.117,0.113 25.698,14.915 20.918,29.257l-38.208,114.626c-3.605,10.814 -13.725,18.109 -25.124,18.109l-182.68,0l0,-17.655c81.544,-119.18 179.562,-144.673 225.094,-144.337z"/>
  <path id="svg_4" fill="#FF823C" d="m449.145,26.399c17.035,-3.552 31.562,12.68 26.537,29.34l-24.691,81.854c-1.442,4.781 -3.714,9.345 -7.114,13.004c-0.051,0.055 -0.102,0.11 -0.152,0.164c-7.082,7.74 -16.778,12.551 -27.268,12.551l-151.094,0c52.288,-87.216 128.423,-125.371 183.782,-136.913z"/>
  <path id="svg_5" fill="#FF9B46" d="m449.231,123.394c1.991,0.294 3.827,0.875 5.558,1.606l-3.798,12.594c-1.442,4.781 -3.714,9.345 -7.115,13.003c-0.051,0.055 -0.102,0.11 -0.152,0.164c-7.081,7.741 -16.778,12.552 -27.268,12.552l-150.738,0c67.909,-40.947 136.039,-46.918 183.513,-39.919z"/>
  <g id="svg_6">
   <circle id="svg_7" fill="#6B5B6B" r="7.54" cy="49.286" cx="453.705"/>
   <circle id="svg_8" fill="#6B5B6B" r="6.436" cy="78.836" cx="447.172"/>
   <circle id="svg_9" fill="#6B5B6B" r="5.702" cy="108.386" cx="440.64"/>
   <circle id="svg_10" fill="#6B5B6B" r="5.057" cy="137.937" cx="434.118"/>
  </g>
  <path id="svg_11" fill="#FFD26E" d="m105.931,163.312l150.069,0l0,44.138c0,0 -70.621,141.241 -88.276,150.069s-114.759,-33.137 -114.759,-105.932c0,-44.138 52.966,-88.275 52.966,-88.275z"/>
  <path id="svg_12" fill="#FFC355" d="m90.366,253.9c44.284,-50.383 123.092,-70.36 165.634,-77.762c0,-5.289 0,-12.826 0,-12.826l-150.069,0c0,0 -52.966,44.138 -52.966,88.276c0,14.861 4.092,28.412 10.684,40.533c7.261,-13.22 16.03,-26.062 26.717,-38.221z"/>
  <path id="svg_13" fill="#463246" d="m22.078,1.32c-15.118,0.112 -25.699,14.915 -20.917,29.257l38.208,114.626c3.605,10.814 13.725,18.109 25.124,18.109l182.679,0l0,-17.655c-81.545,-119.18 -179.563,-144.673 -225.094,-144.337z"/>
  <g id="svg_14">
   <path id="svg_15" fill="#9B6450" d="m247.172,132.415c-2.431,0 -4.405,-1.974 -4.414,-4.405c0,-0.474 -0.629,-47.629 -42.655,-84.988c-1.818,-1.617 -1.992,-4.409 -0.371,-6.229c1.612,-1.832 4.414,-1.996 6.232,-0.366c45.103,40.092 45.621,89.489 45.621,91.574c0,2.431 -1.974,4.405 -4.405,4.414l-0.008,0z"/>
   <path id="svg_16" fill="#9B6450" d="m264.827,132.415c-2.44,0 -4.414,-1.974 -4.414,-4.414c0,-2.087 0.518,-51.482 45.621,-91.573c1.802,-1.63 4.604,-1.465 6.232,0.366c1.621,1.818 1.449,4.612 -0.371,6.229c-42.164,37.486 -42.655,84.504 -42.655,84.978c0.001,2.44 -1.973,4.414 -4.413,4.414z"/>
  </g>
  <circle id="svg_17" fill="#695046" r="17.655" cy="136.833" cx="256"/>
  <path id="svg_18" fill="#C8AA4B" d="m256,278.07c-4.879,0 -8.828,-3.948 -8.828,-8.828l0,-70.621c0,-4.879 3.948,-8.828 8.828,-8.828c4.879,0 8.828,3.948 8.828,8.828l0,70.621c-0.001,4.88 -3.949,8.828 -8.828,8.828z"/>
  <path id="svg_19" fill="#FF823C" d="m62.854,26.399c-17.035,-3.552 -31.562,12.68 -26.537,29.34l24.691,81.854c1.442,4.781 3.714,9.345 7.114,13.004c0.051,0.055 0.102,0.11 0.152,0.164c7.082,7.74 16.778,12.551 27.268,12.551l151.093,0c-52.286,-87.216 -128.423,-125.371 -183.781,-136.913z"/>
  <path id="svg_20" fill="#FF9B46" d="m62.768,123.394c-1.991,0.294 -3.827,0.875 -5.558,1.606l3.798,12.594c1.442,4.781 3.714,9.345 7.115,13.003c0.051,0.055 0.102,0.11 0.152,0.164c7.081,7.741 16.778,12.552 27.268,12.552l150.737,0c-67.908,-40.947 -136.037,-46.918 -183.512,-39.919z"/>
  <path id="svg_21" fill="#B49646" d="m256,207.449l0,0c-9.751,0 -17.655,-7.904 -17.655,-17.655l0,-26.483c0,-9.751 7.904,-17.655 17.655,-17.655l0,0c9.751,0 17.655,7.904 17.655,17.655l0,26.483c0,9.751 -7.905,17.655 -17.655,17.655z"/>
  <g id="svg_22">
   <circle id="svg_23" fill="#6B5B6B" r="7.54" cy="49.286" cx="58.298"/>
   <circle id="svg_24" fill="#6B5B6B" r="6.436" cy="78.836" cx="64.827"/>
   <circle id="svg_25" fill="#6B5B6B" r="5.702" cy="108.386" cx="71.36"/>
   <circle id="svg_26" fill="#6B5B6B" r="5.057" cy="137.937" cx="77.881"/>
  </g>
  <g id="svg_27"/>
  <g id="svg_28"/>
  <g id="svg_29"/>
  <g id="svg_30"/>
  <g id="svg_31"/>
  <g id="svg_32"/>
  <g id="svg_33"/>
  <g id="svg_34"/>
  <g id="svg_35"/>
  <g id="svg_36"/>
  <g id="svg_37"/>
  <g id="svg_38"/>
  <g id="svg_39"/>
  <g id="svg_40"/>
  <g id="svg_41"/>
 </g>
</svg>